<svg id="91c1cc9b-16d5-4e03-bd03-21499791b66e" data-name="Layer 4" xmlns="http://www.w3.org/2000/svg" xmlns:xlink="http://www.w3.org/1999/xlink" width="299.99" height="462.24" viewBox="0 0 299.99 462.24"><defs><clipPath id="5bad5cc7-d830-4e0d-9710-05d12bb779c3"><polygon points="162.77 450.52 162.75 442.37 198.15 421.93 198.24 430.05 162.77 450.52" style="fill:none;stroke:#000;stroke-miterlimit:10"/></clipPath><clipPath id="1c3913f8-f95b-44ac-b30f-416f5e95a757"><polygon points="141.44 438.24 141.47 430.09 162.75 442.37 162.72 450.52 141.44 438.24" style="fill:none;stroke:#000;stroke-miterlimit:10"/></clipPath><clipPath id="943f1866-a1bb-4394-b2ad-4f69db4823f8"><polygon points="198.15 421.93 176.92 409.69 141.44 430.17 162.59 442.46 198.15 421.93" style="fill:none;stroke:#000;stroke-miterlimit:10"/></clipPath><clipPath id="e57623c9-dba3-494f-9baa-5d3f310c96e7"><polygon points="176.96 434.3 176.86 401.69 198.14 389.4 198.24 422.01 176.96 434.3" style="fill:none;stroke:#000;stroke-miterlimit:10"/></clipPath><clipPath id="f73f3d17-ca56-430f-b0d1-a07306feac0e"><polygon points="155.49 422.01 155.58 389.4 176.86 401.69 176.77 434.3 155.49 422.01" style="fill:none;stroke:#000;stroke-miterlimit:10"/></clipPath><clipPath id="3954b219-ae4c-4e41-8d61-8e7141ff1781"><polygon points="112.97 422.25 112.94 414.1 148.35 393.66 148.43 401.78 112.97 422.25" style="fill:none;stroke:#000;stroke-miterlimit:10"/></clipPath><clipPath id="26a3320e-874a-4405-abb2-1f6455c42539"><polygon points="91.64 409.97 91.66 401.82 112.94 414.1 112.92 422.25 91.64 409.97" style="fill:none;stroke:#000;stroke-miterlimit:10"/></clipPath><clipPath id="f57416ef-73fb-443e-ba69-7758895cc50c"><polygon points="148.35 393.66 127.11 381.42 91.64 401.9 112.79 414.19 148.35 393.66" style="fill:none;stroke:#000;stroke-miterlimit:10"/></clipPath><clipPath id="7ecd1f2f-3acc-4e9a-9035-acf7a4e211d3"><polygon points="127.15 406.02 127.06 373.41 148.34 361.13 148.43 393.74 127.15 406.02" style="fill:none;stroke:#000;stroke-miterlimit:10"/></clipPath><clipPath id="645469aa-62cc-4cd5-82d9-cd2b391d35e9"><polygon points="105.69 393.74 105.78 361.13 127.06 373.41 126.97 406.02 105.69 393.74" style="fill:none;stroke:#000;stroke-miterlimit:10"/></clipPath><clipPath id="f9e1f6af-ab17-4a7a-94be-b271fb0cb293"><polygon points="76.24 320.26 76.66 295.81 112.54 276.05 112.12 300.5 76.24 320.26" style="fill:none;stroke:#000;stroke-miterlimit:10"/></clipPath><clipPath id="5ee332d7-dd12-4800-a1fb-00981149e896"><polygon points="55.35 307.56 55.91 283.11 76.94 295.82 76.38 320.26 55.35 307.56" style="fill:none;stroke:#000;stroke-miterlimit:10"/></clipPath><clipPath id="c1bf1133-3cab-48b4-be4e-d87c6b62307f"><polygon points="112.61 276.05 91.72 263.34 55.84 283.11 76.73 295.81 112.61 276.05" style="fill:none;stroke:#000;stroke-miterlimit:10"/></clipPath><clipPath id="74df229b-0ede-4285-b22f-888c778e64c8"><polygon points="33.76 319.42 34.31 294.97 55.34 307.68 54.78 332.13 33.76 319.42" style="fill:none;stroke:#000;stroke-miterlimit:10"/></clipPath><clipPath id="23c1dc94-5be9-4bb0-8b2d-e2fc2155416a"><polygon points="34.38 294.97 55.77 283.11 76.8 295.82 55.42 307.68 34.38 294.97" style="fill:none;stroke:#000;stroke-miterlimit:10"/></clipPath><clipPath id="d557b560-4ca9-48d7-ae39-4109900d1c57"><polygon points="54.85 332.13 55.34 307.68 76.87 295.82 76.45 320.27 54.85 332.13" style="fill:none;stroke:#000;stroke-miterlimit:10"/></clipPath><clipPath id="366358ad-a31c-4f6c-ba6e-5b872e3642f2"><polygon points="151.33 416.26 151.33 334.74 222.15 293.78 222.5 375.3 151.33 416.26" style="fill:none;stroke:#000;stroke-miterlimit:10"/></clipPath><clipPath id="dd6cdf10-0e55-475a-a1cb-f4b3d7928a46"><polygon points="80.16 375.3 80.5 293.79 151.33 334.74 151.33 416.26 80.16 375.3" style="fill:none;stroke:#000;stroke-miterlimit:10"/></clipPath><clipPath id="8a5e4d16-a3f3-453b-af2e-c9d1112c4efa"><polygon points="80.5 293.79 151.1 252.82 222.15 293.78 151.55 334.74 80.5 293.79" style="fill:none;stroke:#000;stroke-miterlimit:10"/></clipPath><clipPath id="b1c197d2-16e9-4d67-8a32-03be256eb79c"><polygon points="151.33 335.15 151.33 253.63 222.15 212.68 222.5 294.19 151.33 335.15" style="fill:none;stroke:#000;stroke-miterlimit:10"/></clipPath><clipPath id="e8ea4c30-be8c-4a6d-9678-77976d166a8c"><polygon points="80.16 294.19 80.5 212.68 151.33 253.63 151.33 335.15 80.16 294.19" style="fill:none;stroke:#000;stroke-miterlimit:10"/></clipPath><clipPath id="a18efa15-ff57-470b-8542-896c2f83c06b"><polygon points="80.5 212.68 151.1 171.72 222.15 212.68 151.55 253.64 80.5 212.68" style="fill:none;stroke:#000;stroke-miterlimit:10"/></clipPath><clipPath id="038b6086-2ddb-4fe4-b56a-7c5ff9ebe8d4"><polygon points="198.24 400.31 198.24 375.85 219.52 363.56 219.59 388.02 198.24 400.31" style="fill:none;stroke:#000;stroke-miterlimit:10"/></clipPath><clipPath id="821c297e-b3b7-4ff9-901e-880c77d27ced"><polygon points="176.89 388.02 176.96 363.57 198.24 375.85 198.24 400.31 176.89 388.02" style="fill:none;stroke:#000;stroke-miterlimit:10"/></clipPath><clipPath id="08b31972-4a19-4120-bf89-d61b7155f571"><polygon points="177.02 363.57 198.16 351.28 219.45 363.57 198.31 375.86 177.02 363.57" style="fill:none;stroke:#000;stroke-miterlimit:10"/></clipPath><clipPath id="cb165dd3-f1c1-4564-8178-df534aa07166"><polygon points="198.23 375.07 198.23 334.31 219.52 322.02 219.63 362.78 198.23 375.07" style="fill:none;stroke:#000;stroke-miterlimit:10"/></clipPath><clipPath id="1e386ea3-2ef2-4e66-94d0-7da838dc5e84"><polygon points="176.84 362.78 176.95 322.02 198.23 334.31 198.23 375.07 176.84 362.78" style="fill:none;stroke:#000;stroke-miterlimit:10"/></clipPath><clipPath id="d768afc7-8a78-4f7b-821c-65b56ddf3434"><polygon points="177.02 322.02 198.16 309.73 219.45 322.02 198.31 334.31 177.02 322.02" style="fill:none;stroke:#000;stroke-miterlimit:10"/></clipPath><clipPath id="026c62a7-aff7-4a20-b4eb-412d6493529e"><polygon points="98.06 275.08 98.16 241.45 127.42 258.34 127.33 291.97 98.06 275.08" style="fill:none"/></clipPath><clipPath id="551c0b23-395e-4ad7-85e6-50153880fa55"><polygon points="104.2 221.36 125.35 209.07 149.92 223.26 128.77 235.55 104.2 221.36" style="fill:none"/></clipPath></defs><title>bot-yf</title><g style="isolation:isolate"><g style="clip-path:url(#5bad5cc7-d830-4e0d-9710-05d12bb779c3)"><polyline points="198.15 421.93 162.75 442.37 162.77 450.52 198.24 430.05 198.15 421.93" style="fill:#231f20;stroke:#000;stroke-miterlimit:10"/></g><polygon points="162.77 450.52 162.75 442.37 198.15 421.93 198.24 430.05 162.77 450.52" style="fill:none;stroke:#000;stroke-miterlimit:10"/></g><g style="isolation:isolate"><g style="clip-path:url(#1c3913f8-f95b-44ac-b30f-416f5e95a757)"><polyline points="162.75 442.37 141.47 430.09 141.44 438.24 162.72 450.52 162.75 442.37" style="fill:#606060;stroke:#000;stroke-miterlimit:10"/></g><polygon points="141.44 438.24 141.47 430.09 162.75 442.37 162.72 450.52 141.44 438.24" style="fill:none;stroke:#000;stroke-miterlimit:10"/></g><g style="isolation:isolate"><g style="clip-path:url(#943f1866-a1bb-4394-b2ad-4f69db4823f8)"><polyline points="141.44 430.17 176.92 409.69 198.15 421.93 162.59 442.46 141.44 430.17" style="fill:#848484;stroke:#000;stroke-miterlimit:10"/></g><polygon points="198.15 421.93 176.92 409.69 141.44 430.17 162.59 442.46 198.15 421.93" style="fill:none;stroke:#000;stroke-miterlimit:10"/></g><g style="isolation:isolate"><g style="clip-path:url(#e57623c9-dba3-494f-9baa-5d3f310c96e7)"><polyline points="198.14 389.4 176.86 401.69 176.96 434.3 198.24 422.01 198.14 389.4" style="fill:#231f20;stroke:#000;stroke-miterlimit:10"/></g><polygon points="176.96 434.3 176.86 401.69 198.14 389.4 198.24 422.01 176.96 434.3" style="fill:none;stroke:#000;stroke-miterlimit:10"/></g><g style="isolation:isolate"><g style="clip-path:url(#f73f3d17-ca56-430f-b0d1-a07306feac0e)"><polyline points="176.86 401.69 155.58 389.4 155.49 422.01 176.77 434.3 176.86 401.69" style="fill:#606060;stroke:#000;stroke-miterlimit:10"/></g><polygon points="155.49 422.01 155.58 389.4 176.86 401.69 176.77 434.3 155.49 422.01" style="fill:none;stroke:#000;stroke-miterlimit:10"/></g><g style="isolation:isolate"><g style="clip-path:url(#3954b219-ae4c-4e41-8d61-8e7141ff1781)"><polyline points="148.35 393.66 112.94 414.1 112.97 422.25 148.43 401.78 148.35 393.66" style="fill:#231f20;stroke:#000;stroke-miterlimit:10"/></g><polygon points="112.97 422.25 112.94 414.1 148.35 393.66 148.43 401.78 112.97 422.25" style="fill:none;stroke:#000;stroke-miterlimit:10"/></g><g style="isolation:isolate"><g style="clip-path:url(#26a3320e-874a-4405-abb2-1f6455c42539)"><polyline points="112.94 414.1 91.66 401.82 91.64 409.97 112.92 422.25 112.94 414.1" style="fill:#606060;stroke:#000;stroke-miterlimit:10"/></g><polygon points="91.64 409.97 91.66 401.82 112.94 414.1 112.92 422.25 91.64 409.97" style="fill:none;stroke:#000;stroke-miterlimit:10"/></g><g style="isolation:isolate"><g style="clip-path:url(#f57416ef-73fb-443e-ba69-7758895cc50c)"><polyline points="91.64 401.9 127.11 381.42 148.35 393.66 112.79 414.19 91.64 401.9" style="fill:#848484;stroke:#000;stroke-miterlimit:10"/></g><polygon points="148.35 393.66 127.11 381.42 91.64 401.9 112.79 414.19 148.35 393.66" style="fill:none;stroke:#000;stroke-miterlimit:10"/></g><g style="isolation:isolate"><g style="clip-path:url(#7ecd1f2f-3acc-4e9a-9035-acf7a4e211d3)"><polyline points="148.34 361.13 127.06 373.41 127.15 406.02 148.43 393.74 148.34 361.13" style="fill:#231f20;stroke:#000;stroke-miterlimit:10"/></g><polygon points="127.15 406.02 127.06 373.41 148.34 361.13 148.43 393.74 127.15 406.02" style="fill:none;stroke:#000;stroke-miterlimit:10"/></g><g style="isolation:isolate"><g style="clip-path:url(#645469aa-62cc-4cd5-82d9-cd2b391d35e9)"><polyline points="127.06 373.41 105.78 361.13 105.69 393.74 126.97 406.02 127.06 373.41" style="fill:#606060;stroke:#000;stroke-miterlimit:10"/></g><polygon points="105.69 393.74 105.78 361.13 127.06 373.41 126.97 406.02 105.69 393.74" style="fill:none;stroke:#000;stroke-miterlimit:10"/></g><g style="isolation:isolate"><g style="clip-path:url(#f9e1f6af-ab17-4a7a-94be-b271fb0cb293)"><polyline points="112.54 276.05 76.66 295.81 76.24 320.26 112.12 300.5 112.54 276.05" style="fill:#231f20;stroke:#000;stroke-miterlimit:10"/></g><polygon points="76.24 320.26 76.66 295.81 112.54 276.05 112.12 300.5 76.24 320.26" style="fill:none;stroke:#000;stroke-miterlimit:10"/></g><g style="isolation:isolate"><g style="clip-path:url(#5ee332d7-dd12-4800-a1fb-00981149e896)"><polyline points="76.94 295.82 55.91 283.11 55.35 307.56 76.38 320.26 76.94 295.82" style="fill:#606060;stroke:#000;stroke-miterlimit:10"/></g><polygon points="55.35 307.56 55.91 283.11 76.94 295.82 76.38 320.26 55.35 307.56" style="fill:none;stroke:#000;stroke-miterlimit:10"/></g><g style="isolation:isolate"><g style="clip-path:url(#c1bf1133-3cab-48b4-be4e-d87c6b62307f)"><polyline points="55.84 283.11 91.72 263.34 112.61 276.05 76.73 295.81 55.84 283.11" style="fill:#848484;stroke:#000;stroke-miterlimit:10"/></g><polygon points="112.61 276.05 91.72 263.34 55.84 283.11 76.73 295.81 112.61 276.05" style="fill:none;stroke:#000;stroke-miterlimit:10"/></g><g style="isolation:isolate"><g style="clip-path:url(#74df229b-0ede-4285-b22f-888c778e64c8)"><polyline points="55.34 307.68 34.31 294.97 33.76 319.42 54.78 332.13 55.34 307.68" style="fill:red;stroke:#000;stroke-miterlimit:10"/></g><polygon points="33.76 319.42 34.31 294.97 55.34 307.68 54.78 332.13 33.76 319.42" style="fill:none;stroke:#000;stroke-miterlimit:10"/></g><g style="isolation:isolate"><g style="clip-path:url(#23c1dc94-5be9-4bb0-8b2d-e2fc2155416a)"><polyline points="76.8 295.82 55.77 283.11 34.38 294.97 55.42 307.68 76.8 295.82" style="fill:#848484;stroke:#000;stroke-miterlimit:10"/></g><polygon points="34.38 294.97 55.77 283.11 76.8 295.82 55.42 307.68 34.38 294.97" style="fill:none;stroke:#000;stroke-miterlimit:10"/></g><g style="isolation:isolate"><g style="clip-path:url(#d557b560-4ca9-48d7-ae39-4109900d1c57)"><polyline points="76.87 295.82 55.34 307.68 54.85 332.13 76.45 320.27 76.87 295.82" style="fill:#231f20;stroke:#000;stroke-miterlimit:10"/></g><polygon points="54.85 332.13 55.34 307.68 76.87 295.82 76.45 320.27 54.85 332.13" style="fill:none;stroke:#000;stroke-miterlimit:10"/></g><g style="isolation:isolate"><g style="clip-path:url(#366358ad-a31c-4f6c-ba6e-5b872e3642f2)"><polyline points="222.15 293.78 151.33 334.74 151.33 416.26 222.5 375.3 222.15 293.78" style="fill:#231f20;stroke:#000;stroke-miterlimit:10"/></g><polygon points="151.33 416.26 151.33 334.74 222.15 293.78 222.5 375.3 151.33 416.26" style="fill:none;stroke:#000;stroke-miterlimit:10"/></g><g style="isolation:isolate"><g style="clip-path:url(#dd6cdf10-0e55-475a-a1cb-f4b3d7928a46)"><polyline points="151.33 334.74 80.5 293.79 80.16 375.3 151.33 416.26 151.33 334.74" style="fill:#606060;stroke:#000;stroke-miterlimit:10"/></g><polygon points="80.16 375.3 80.5 293.79 151.33 334.74 151.33 416.26 80.16 375.3" style="fill:none;stroke:#000;stroke-miterlimit:10"/></g><g style="isolation:isolate"><g style="clip-path:url(#8a5e4d16-a3f3-453b-af2e-c9d1112c4efa)"><polyline points="222.15 293.78 151.1 252.82 80.5 293.79 151.33 334.74 222.15 293.78" style="fill:#848484;stroke:#000;stroke-miterlimit:10"/></g><polygon points="80.5 293.79 151.1 252.82 222.15 293.78 151.55 334.74 80.5 293.79" style="fill:none;stroke:#000;stroke-miterlimit:10"/></g><g style="isolation:isolate"><g style="clip-path:url(#b1c197d2-16e9-4d67-8a32-03be256eb79c)"><polyline points="222.15 212.68 151.33 253.63 151.33 335.15 222.5 294.19 222.15 212.68" style="fill:#231f20;stroke:#000;stroke-miterlimit:10"/></g><polygon points="151.33 335.15 151.33 253.63 222.15 212.68 222.5 294.19 151.33 335.15" style="fill:none;stroke:#000;stroke-miterlimit:10"/></g><g style="isolation:isolate"><g style="clip-path:url(#e8ea4c30-be8c-4a6d-9678-77976d166a8c)"><polyline points="151.33 253.63 80.5 212.68 80.16 294.19 151.33 335.15 151.33 253.63" style="fill:#606060;stroke:#000;stroke-miterlimit:10"/></g><polygon points="80.16 294.19 80.5 212.68 151.33 253.63 151.33 335.15 80.16 294.19" style="fill:none;stroke:#000;stroke-miterlimit:10"/></g><g style="isolation:isolate"><g style="clip-path:url(#a18efa15-ff57-470b-8542-896c2f83c06b)"><polyline points="222.15 212.68 151.1 171.72 80.5 212.68 151.33 253.63 222.15 212.68" style="fill:#848484;stroke:#000;stroke-miterlimit:10"/></g><polygon points="80.5 212.68 151.1 171.72 222.15 212.68 151.55 253.64 80.5 212.68" style="fill:none;stroke:#000;stroke-miterlimit:10"/></g><g style="isolation:isolate"><g style="clip-path:url(#038b6086-2ddb-4fe4-b56a-7c5ff9ebe8d4)"><polyline points="219.52 363.56 198.24 375.85 198.24 400.31 219.59 388.02 219.52 363.56" style="fill:#231f20;stroke:#000;stroke-miterlimit:10"/></g><polygon points="198.24 400.31 198.24 375.85 219.52 363.56 219.59 388.02 198.24 400.31" style="fill:none;stroke:#000;stroke-miterlimit:10"/></g><g style="isolation:isolate"><g style="clip-path:url(#821c297e-b3b7-4ff9-901e-880c77d27ced)"><polyline points="198.24 375.85 176.96 363.57 176.89 388.02 198.24 400.31 198.24 375.85" style="fill:#606060;stroke:#000;stroke-miterlimit:10"/></g><polygon points="176.89 388.02 176.96 363.57 198.24 375.85 198.24 400.31 176.89 388.02" style="fill:none;stroke:#000;stroke-miterlimit:10"/></g><g style="isolation:isolate"><g style="clip-path:url(#08b31972-4a19-4120-bf89-d61b7155f571)"><polyline points="219.45 363.57 198.16 351.28 177.02 363.57 198.31 375.86 219.45 363.57" style="fill:#848484;stroke:#000;stroke-miterlimit:10"/></g><polygon points="177.02 363.57 198.16 351.28 219.45 363.57 198.31 375.86 177.02 363.57" style="fill:none;stroke:#000;stroke-miterlimit:10"/></g><g style="isolation:isolate"><g style="clip-path:url(#cb165dd3-f1c1-4564-8178-df534aa07166)"><polyline points="219.52 322.02 198.23 334.31 198.23 375.07 219.63 362.78 219.52 322.02" style="fill:#231f20;stroke:#000;stroke-miterlimit:10"/></g><polygon points="198.23 375.07 198.23 334.31 219.52 322.02 219.63 362.78 198.23 375.07" style="fill:none;stroke:#000;stroke-miterlimit:10"/></g><g style="isolation:isolate"><g style="clip-path:url(#1e386ea3-2ef2-4e66-94d0-7da838dc5e84)"><polyline points="198.23 334.31 176.95 322.02 176.84 362.78 198.23 375.07 198.23 334.31" style="fill:#606060;stroke:#000;stroke-miterlimit:10"/></g><polygon points="176.84 362.78 176.95 322.02 198.23 334.31 198.23 375.07 176.84 362.78" style="fill:none;stroke:#000;stroke-miterlimit:10"/></g><g style="isolation:isolate"><g style="clip-path:url(#d768afc7-8a78-4f7b-821c-65b56ddf3434)"><polyline points="219.45 322.02 198.16 309.73 177.02 322.02 198.31 334.31 219.45 322.02" style="fill:#848484;stroke:#000;stroke-miterlimit:10"/></g><polygon points="177.02 322.02 198.16 309.73 219.45 322.02 198.31 334.31 177.02 322.02" style="fill:none;stroke:#000;stroke-miterlimit:10"/></g><g style="isolation:isolate"><g style="clip-path:url(#026c62a7-aff7-4a20-b4eb-412d6493529e)"><path d="M112.72,274.91a15.69,15.69,0,0,1-7.11-12.32c0-4.53,3.22-6.36,7.16-4.08a15.67,15.67,0,0,1,7.11,12.32c0,4.53-3.22,6.36-7.16,4.08m.07-24.2c-7.67-4.43-13.94-.86-14,8s6.2,19.6,13.87,24,13.95.86,14-8-6.2-19.61-13.88-24"/><path d="M112.69,282.7c-7.67-4.43-13.9-15.21-13.87-24s6.29-12.4,14-8,13.9,15.21,13.88,24-6.29,12.39-14,8m.09-32.81c-8.06-4.66-14.65-.9-14.67,8.37s6.52,20.6,14.58,25.26,14.66.9,14.68-8.37-6.52-20.6-14.59-25.26" style="fill:#fff"/><path d="M112.76,258.5c-3.94-2.27-7.15-.45-7.16,4.08a15.69,15.69,0,0,0,7.11,12.32c3.95,2.28,7.15.45,7.16-4.08a15.67,15.67,0,0,0-7.11-12.32" style="fill:red"/></g></g><g style="isolation:isolate"><g style="clip-path:url(#551c0b23-395e-4ad7-85e6-50153880fa55)"><path d="M149.92,223.26l-24.57-14.19-8.86,19.39,33.43-5.2" style="fill:red"/></g></g></svg>