<svg id="5ce635c8-8d5e-4d9b-8714-3e6a14ede333" data-name="Layer 10" xmlns="http://www.w3.org/2000/svg" xmlns:xlink="http://www.w3.org/1999/xlink" width="299.99" height="462.24" viewBox="0 0 299.99 462.24"><defs><clipPath id="aa4c37c9-519d-449a-af7c-050dd9e4980c"><polygon points="175.91 442.63 175.88 434.48 211.29 414.04 211.37 422.16 175.91 442.63" style="fill:none;stroke:#000;stroke-miterlimit:10"/></clipPath><clipPath id="165c7efa-a2b1-47ca-bdf2-264b9e59859d"><polygon points="154.58 430.35 154.6 422.2 175.88 434.48 175.86 442.63 154.58 430.35" style="fill:none;stroke:#000;stroke-miterlimit:10"/></clipPath><clipPath id="944d65cf-22f1-468b-9e0f-8408d440528b"><polygon points="211.29 414.04 190.05 401.8 154.58 422.28 175.73 434.57 211.29 414.04" style="fill:none;stroke:#000;stroke-miterlimit:10"/></clipPath><clipPath id="ec15154a-4668-43ab-b350-00dfa5274e7a"><polygon points="176.05 434.26 175.95 401.65 197.23 389.36 197.33 421.97 176.05 434.26" style="fill:none;stroke:#000;stroke-miterlimit:10"/></clipPath><clipPath id="7f2f86c3-143b-4f19-916d-28667e0521f1"><polygon points="154.58 421.97 154.67 389.36 175.95 401.65 175.86 434.26 154.58 421.97" style="fill:none;stroke:#000;stroke-miterlimit:10"/></clipPath><clipPath id="e56424d9-9448-4179-832f-2a767d52294b"><polygon points="126.1 414.04 126.08 405.89 161.49 385.45 161.57 393.56 126.1 414.04" style="fill:none;stroke:#000;stroke-miterlimit:10"/></clipPath><clipPath id="2b711974-8ed6-42b0-af4c-bdbd5e8ab334"><polygon points="104.78 401.75 104.8 393.6 126.08 405.89 126.06 414.04 104.78 401.75" style="fill:none;stroke:#000;stroke-miterlimit:10"/></clipPath><clipPath id="b85672e2-3bc7-4fed-a8c5-bb5c63f2469f"><polygon points="161.49 385.45 140.25 373.21 104.78 393.69 125.93 405.98 161.49 385.45" style="fill:none;stroke:#000;stroke-miterlimit:10"/></clipPath><clipPath id="ddfe7bbe-8f5a-43dd-b9a3-3772c15f545e"><polygon points="126.24 405.99 126.15 373.38 147.43 361.09 147.52 393.7 126.24 405.99" style="fill:none;stroke:#000;stroke-miterlimit:10"/></clipPath><clipPath id="a2998734-838d-412d-a55a-a673befa138a"><polygon points="104.78 393.7 104.87 361.09 126.15 373.38 126.06 405.99 104.78 393.7" style="fill:none;stroke:#000;stroke-miterlimit:10"/></clipPath><clipPath id="ed93562a-a96e-4758-87fc-cd42683918ba"><polygon points="150.42 416.22 150.42 334.7 221.24 293.75 221.59 375.26 150.42 416.22" style="fill:none;stroke:#000;stroke-miterlimit:10"/></clipPath><clipPath id="4ee5863d-095c-49ca-9cbe-1813589609f4"><polygon points="79.25 375.26 79.59 293.75 150.42 334.7 150.42 416.22 79.25 375.26" style="fill:none;stroke:#000;stroke-miterlimit:10"/></clipPath><clipPath id="d9b91253-7664-4bd5-a326-7a8c7683a653"><polygon points="79.59 293.75 150.19 252.79 221.24 293.75 150.64 334.71 79.59 293.75" style="fill:none;stroke:#000;stroke-miterlimit:10"/></clipPath><clipPath id="efc0518d-07b9-4f13-b560-841e3bf5a193"><polygon points="150.42 335.11 150.42 253.6 221.24 212.64 221.59 294.16 150.42 335.11" style="fill:none;stroke:#000;stroke-miterlimit:10"/></clipPath><clipPath id="e3217121-734d-4589-8f23-27222c6c30db"><polygon points="79.25 294.16 79.59 212.64 150.42 253.6 150.42 335.11 79.25 294.16" style="fill:none;stroke:#000;stroke-miterlimit:10"/></clipPath><clipPath id="6c527dac-1fe9-4ecf-a2ee-1c97b68c0010"><polygon points="79.59 212.64 150.19 171.68 221.24 212.64 150.64 253.6 79.59 212.64" style="fill:none;stroke:#000;stroke-miterlimit:10"/></clipPath><clipPath id="79d53df9-75bb-42b8-b6e5-79aa0182010b"><polygon points="225.47 318.03 226.03 293.58 247.06 306.29 246.5 330.74 225.47 318.03" style="fill:none;stroke:#000;stroke-miterlimit:10"/></clipPath><clipPath id="b033554f-7888-461d-89f0-63f204ae7004"><polygon points="226.1 293.58 247.48 281.72 268.51 294.43 247.13 306.29 226.1 293.58" style="fill:none;stroke:#000;stroke-miterlimit:10"/></clipPath><clipPath id="974af6bb-6e14-404f-9c42-18a3ae1919b6"><polygon points="246.57 330.74 247.06 306.29 268.59 294.43 268.17 318.88 246.57 330.74" style="fill:none;stroke:#000;stroke-miterlimit:10"/></clipPath><clipPath id="757b5f7e-90ab-4d49-975c-0053393aef71"><polygon points="210.73 350.44 211.15 325.99 247.03 306.23 246.61 330.68 210.73 350.44" style="fill:none;stroke:#000;stroke-miterlimit:10"/></clipPath><clipPath id="2d89be65-0062-4870-a582-689d04f5f0e1"><polygon points="189.84 337.73 190.4 313.29 211.43 326 210.87 350.44 189.84 337.73" style="fill:none;stroke:#000;stroke-miterlimit:10"/></clipPath><clipPath id="1fe1a16f-9183-449e-94e2-fdafaeeb7274"><polygon points="247.1 306.23 226.21 293.52 190.33 313.29 211.22 325.99 247.1 306.23" style="fill:none;stroke:#000;stroke-miterlimit:10"/></clipPath></defs><title>bot-xb</title><g style="isolation:isolate"><g style="clip-path:url(#aa4c37c9-519d-449a-af7c-050dd9e4980c)"><polyline points="211.29 414.04 175.88 434.48 175.91 442.63 211.37 422.16 211.29 414.04" style="fill:#231f20;stroke:#000;stroke-miterlimit:10"/></g><polygon points="175.91 442.63 175.88 434.48 211.29 414.04 211.37 422.16 175.91 442.63" style="fill:none;stroke:#000;stroke-miterlimit:10"/></g><g style="isolation:isolate"><g style="clip-path:url(#165c7efa-a2b1-47ca-bdf2-264b9e59859d)"><polyline points="175.88 434.48 154.6 422.2 154.58 430.35 175.86 442.63 175.88 434.48" style="fill:#606060;stroke:#000;stroke-miterlimit:10"/></g><polygon points="154.58 430.35 154.6 422.2 175.88 434.48 175.86 442.63 154.58 430.35" style="fill:none;stroke:#000;stroke-miterlimit:10"/></g><g style="isolation:isolate"><g style="clip-path:url(#944d65cf-22f1-468b-9e0f-8408d440528b)"><polyline points="154.58 422.28 190.05 401.8 211.29 414.04 175.73 434.57 154.58 422.28" style="fill:#848484;stroke:#000;stroke-miterlimit:10"/></g><polygon points="211.29 414.04 190.05 401.8 154.58 422.28 175.73 434.57 211.29 414.04" style="fill:none;stroke:#000;stroke-miterlimit:10"/></g><g style="isolation:isolate"><g style="clip-path:url(#ec15154a-4668-43ab-b350-00dfa5274e7a)"><polyline points="197.23 389.36 175.95 401.65 176.05 434.26 197.33 421.97 197.23 389.36" style="fill:#231f20;stroke:#000;stroke-miterlimit:10"/></g><polygon points="176.05 434.26 175.95 401.65 197.23 389.36 197.33 421.97 176.05 434.26" style="fill:none;stroke:#000;stroke-miterlimit:10"/></g><g style="isolation:isolate"><g style="clip-path:url(#7f2f86c3-143b-4f19-916d-28667e0521f1)"><polyline points="175.95 401.65 154.67 389.36 154.58 421.97 175.86 434.26 175.95 401.65" style="fill:#606060;stroke:#000;stroke-miterlimit:10"/></g><polygon points="154.58 421.97 154.67 389.36 175.95 401.65 175.86 434.26 154.58 421.97" style="fill:none;stroke:#000;stroke-miterlimit:10"/></g><g style="isolation:isolate"><g style="clip-path:url(#e56424d9-9448-4179-832f-2a767d52294b)"><polyline points="161.49 385.45 126.08 405.89 126.1 414.04 161.57 393.56 161.49 385.45" style="fill:#231f20;stroke:#000;stroke-miterlimit:10"/></g><polygon points="126.1 414.04 126.08 405.89 161.49 385.45 161.57 393.56 126.1 414.04" style="fill:none;stroke:#000;stroke-miterlimit:10"/></g><g style="isolation:isolate"><g style="clip-path:url(#2b711974-8ed6-42b0-af4c-bdbd5e8ab334)"><polyline points="126.08 405.89 104.8 393.6 104.78 401.75 126.06 414.04 126.08 405.89" style="fill:#606060;stroke:#000;stroke-miterlimit:10"/></g><polygon points="104.78 401.75 104.8 393.6 126.08 405.89 126.06 414.04 104.78 401.75" style="fill:none;stroke:#000;stroke-miterlimit:10"/></g><g style="isolation:isolate"><g style="clip-path:url(#b85672e2-3bc7-4fed-a8c5-bb5c63f2469f)"><polyline points="104.78 393.69 140.25 373.21 161.49 385.45 125.93 405.98 104.78 393.69" style="fill:#848484;stroke:#000;stroke-miterlimit:10"/></g><polygon points="161.49 385.45 140.25 373.21 104.78 393.69 125.93 405.98 161.49 385.45" style="fill:none;stroke:#000;stroke-miterlimit:10"/></g><g style="isolation:isolate"><g style="clip-path:url(#ddfe7bbe-8f5a-43dd-b9a3-3772c15f545e)"><polyline points="147.43 361.09 126.15 373.38 126.24 405.99 147.52 393.7 147.43 361.09" style="fill:#231f20;stroke:#000;stroke-miterlimit:10"/></g><polygon points="126.24 405.99 126.15 373.38 147.43 361.09 147.52 393.7 126.24 405.99" style="fill:none;stroke:#000;stroke-miterlimit:10"/></g><g style="isolation:isolate"><g style="clip-path:url(#a2998734-838d-412d-a55a-a673befa138a)"><polyline points="126.15 373.38 104.87 361.09 104.78 393.7 126.06 405.99 126.15 373.38" style="fill:#606060;stroke:#000;stroke-miterlimit:10"/></g><polygon points="104.78 393.7 104.87 361.09 126.15 373.38 126.06 405.99 104.78 393.7" style="fill:none;stroke:#000;stroke-miterlimit:10"/></g><g style="isolation:isolate"><g style="clip-path:url(#ed93562a-a96e-4758-87fc-cd42683918ba)"><polyline points="221.24 293.75 150.42 334.7 150.42 416.22 221.59 375.26 221.24 293.75" style="fill:#231f20;stroke:#000;stroke-miterlimit:10"/></g><polygon points="150.42 416.22 150.42 334.7 221.24 293.75 221.59 375.26 150.42 416.22" style="fill:none;stroke:#000;stroke-miterlimit:10"/></g><g style="isolation:isolate"><g style="clip-path:url(#4ee5863d-095c-49ca-9cbe-1813589609f4)"><polyline points="150.42 334.7 79.59 293.75 79.25 375.26 150.42 416.22 150.42 334.7" style="fill:#606060;stroke:#000;stroke-miterlimit:10"/></g><polygon points="79.25 375.26 79.59 293.75 150.42 334.7 150.42 416.22 79.25 375.26" style="fill:none;stroke:#000;stroke-miterlimit:10"/></g><g style="isolation:isolate"><g style="clip-path:url(#d9b91253-7664-4bd5-a326-7a8c7683a653)"><polyline points="221.24 293.75 150.19 252.79 79.59 293.75 150.42 334.7 221.24 293.75" style="fill:#848484;stroke:#000;stroke-miterlimit:10"/></g><polygon points="79.59 293.75 150.19 252.79 221.24 293.75 150.64 334.71 79.59 293.75" style="fill:none;stroke:#000;stroke-miterlimit:10"/></g><g style="isolation:isolate"><g style="clip-path:url(#efc0518d-07b9-4f13-b560-841e3bf5a193)"><polyline points="221.24 212.64 150.42 253.6 150.42 335.11 221.59 294.16 221.24 212.64" style="fill:#231f20;stroke:#000;stroke-miterlimit:10"/></g><polygon points="150.42 335.11 150.42 253.6 221.24 212.64 221.59 294.16 150.42 335.11" style="fill:none;stroke:#000;stroke-miterlimit:10"/></g><g style="isolation:isolate"><g style="clip-path:url(#e3217121-734d-4589-8f23-27222c6c30db)"><polyline points="150.42 253.6 79.59 212.64 79.25 294.16 150.42 335.11 150.42 253.6" style="fill:#606060;stroke:#000;stroke-miterlimit:10"/></g><polygon points="79.25 294.16 79.59 212.64 150.42 253.6 150.42 335.11 79.25 294.16" style="fill:none;stroke:#000;stroke-miterlimit:10"/></g><g style="isolation:isolate"><g style="clip-path:url(#6c527dac-1fe9-4ecf-a2ee-1c97b68c0010)"><polyline points="221.24 212.64 150.19 171.68 79.59 212.64 150.42 253.6 221.24 212.64" style="fill:#848484;stroke:#000;stroke-miterlimit:10"/></g><polygon points="79.59 212.64 150.19 171.68 221.24 212.64 150.64 253.6 79.59 212.64" style="fill:none;stroke:#000;stroke-miterlimit:10"/></g><g style="isolation:isolate"><g style="clip-path:url(#79d53df9-75bb-42b8-b6e5-79aa0182010b)"><polyline points="247.06 306.29 226.03 293.58 225.47 318.03 246.5 330.74 247.06 306.29" style="fill:#606060;stroke:#000;stroke-miterlimit:10"/></g><polygon points="225.47 318.03 226.03 293.58 247.06 306.29 246.5 330.74 225.47 318.03" style="fill:none;stroke:#000;stroke-miterlimit:10"/></g><g style="isolation:isolate"><g style="clip-path:url(#b033554f-7888-461d-89f0-63f204ae7004)"><polyline points="268.51 294.43 247.48 281.72 226.1 293.58 247.13 306.29 268.51 294.43" style="fill:#848484;stroke:#000;stroke-miterlimit:10"/></g><polygon points="226.1 293.58 247.48 281.72 268.51 294.43 247.13 306.29 226.1 293.58" style="fill:none;stroke:#000;stroke-miterlimit:10"/></g><g style="isolation:isolate"><g style="clip-path:url(#974af6bb-6e14-404f-9c42-18a3ae1919b6)"><polyline points="268.59 294.43 247.06 306.29 246.57 330.74 268.17 318.88 268.59 294.43" style="fill:#231f20;stroke:#000;stroke-miterlimit:10"/></g><polygon points="246.57 330.74 247.06 306.29 268.59 294.43 268.17 318.88 246.57 330.74" style="fill:none;stroke:#000;stroke-miterlimit:10"/></g><g style="isolation:isolate"><g style="clip-path:url(#757b5f7e-90ab-4d49-975c-0053393aef71)"><polyline points="247.03 306.23 211.15 325.99 210.73 350.44 246.61 330.68 247.03 306.23" style="fill:#231f20;stroke:#000;stroke-miterlimit:10"/></g><polygon points="210.73 350.44 211.15 325.99 247.03 306.23 246.61 330.68 210.73 350.44" style="fill:none;stroke:#000;stroke-miterlimit:10"/></g><g style="isolation:isolate"><g style="clip-path:url(#2d89be65-0062-4870-a582-689d04f5f0e1)"><polyline points="211.43 326 190.4 313.29 189.84 337.73 210.87 350.44 211.43 326" style="fill:#606060;stroke:#000;stroke-miterlimit:10"/></g><polygon points="189.84 337.73 190.4 313.29 211.43 326 210.87 350.44 189.84 337.73" style="fill:none;stroke:#000;stroke-miterlimit:10"/></g><g style="isolation:isolate"><g style="clip-path:url(#1fe1a16f-9183-449e-94e2-fdafaeeb7274)"><polyline points="190.33 313.29 226.21 293.52 247.1 306.23 211.22 325.99 190.33 313.29" style="fill:#848484;stroke:#000;stroke-miterlimit:10"/></g><polygon points="247.1 306.23 226.21 293.52 190.33 313.29 211.22 325.99 247.1 306.23" style="fill:none;stroke:#000;stroke-miterlimit:10"/></g><g style="isolation:isolate"><polyline points="175.81 193.26 142.38 198.45 166.95 212.64 175.81 193.26" style="fill:red"/></g></svg>