<svg id="9a54d84d-ebed-40ac-b464-22e80902aecc" data-name="Layer 3" xmlns="http://www.w3.org/2000/svg" xmlns:xlink="http://www.w3.org/1999/xlink" width="299.99" height="462.24" viewBox="0 0 299.99 462.24"><defs><clipPath id="21fc16f1-86f9-4111-a80b-573dc1399ad8"><polygon points="124.64 442.67 124.66 434.52 89.25 414.08 89.17 422.19 124.64 442.67" style="fill:#606060;stroke:#000;stroke-miterlimit:10"/></clipPath><clipPath id="b98e7ad7-c8a1-4da2-b7dd-a1995093f723"><polygon points="145.96 430.38 145.94 422.23 124.66 434.52 124.68 442.67 145.96 430.38" style="fill:#231f20;stroke:#000;stroke-miterlimit:10"/></clipPath><clipPath id="1c13bbde-5751-4a38-8928-afb14b0bf519"><polygon points="89.25 414.08 110.49 401.84 145.96 422.32 124.81 434.61 89.25 414.08" style="fill:none;stroke:#000;stroke-miterlimit:10"/></clipPath><clipPath id="ac01c761-f8b6-4dbb-a997-b2d635cd37d6"><polygon points="124.5 434.3 124.59 401.69 103.31 389.4 103.22 422.01 124.5 434.3" style="fill:#606060;stroke:#000;stroke-miterlimit:10"/></clipPath><clipPath id="73f45a7e-59ec-4d0d-9ec7-cd3c4b3cb2ca"><polygon points="145.96 422.01 145.87 389.4 124.59 401.69 124.68 434.3 145.96 422.01" style="fill:#231f20;stroke:#000;stroke-miterlimit:10"/></clipPath><clipPath id="1500b109-2bff-473c-8990-2687f319e649"><polygon points="174.44 414.08 174.46 405.93 139.06 385.48 138.97 393.6 174.44 414.08" style="fill:#606060;stroke:#000;stroke-miterlimit:10"/></clipPath><clipPath id="2405c8ff-86ce-4d80-9484-32e644108ae5"><polygon points="195.77 401.79 195.74 393.64 174.46 405.93 174.49 414.08 195.77 401.79" style="fill:#231f20;stroke:#000;stroke-miterlimit:10"/></clipPath><clipPath id="f2bd4e05-97df-4e47-975d-16ac6f34f70d"><polygon points="139.06 385.48 160.29 373.24 195.77 393.72 174.62 406.01 139.06 385.48" style="fill:none;stroke:#000;stroke-miterlimit:10"/></clipPath><clipPath id="a9a225a7-9f3d-4153-84c5-04903b459682"><polygon points="174.3 406.02 174.4 373.41 153.12 361.13 153.02 393.74 174.3 406.02" style="fill:#606060;stroke:#000;stroke-miterlimit:10"/></clipPath><clipPath id="3eb3a618-83c5-4d84-9f97-88ba8cd6f567"><polygon points="195.77 393.74 195.68 361.13 174.4 373.41 174.49 406.02 195.77 393.74" style="fill:#231f20;stroke:#000;stroke-miterlimit:10"/></clipPath><clipPath id="6b2cb851-043f-4ee2-b19b-1f450915dadf"><polygon points="150.13 416.26 150.13 334.74 79.3 293.78 78.96 375.3 150.13 416.26" style="fill:#606060;stroke:#000;stroke-miterlimit:10"/></clipPath><clipPath id="e650f22c-be52-48b9-a8a5-1127ccf7ae5f"><polygon points="221.3 375.3 220.96 293.79 150.13 334.74 150.13 416.26 221.3 375.3" style="fill:#231f20;stroke:#000;stroke-miterlimit:10"/></clipPath><clipPath id="c219b1a3-4868-4eef-86f7-045e7f6f142a"><polygon points="220.96 293.79 150.36 252.82 79.3 293.78 149.9 334.74 220.96 293.79" style="fill:none;stroke:#000;stroke-miterlimit:10"/></clipPath><clipPath id="fca07e68-f417-4fb9-8819-5062a2f8cd2e"><polygon points="150.13 335.15 150.13 253.63 79.3 212.68 78.96 294.19 150.13 335.15" style="fill:#606060;stroke:#000;stroke-miterlimit:10"/></clipPath><clipPath id="1433b190-2900-4e50-b29a-215686e6f9d5"><polygon points="221.3 294.19 220.96 212.68 150.13 253.63 150.13 335.15 221.3 294.19" style="fill:#231f20;stroke:#000;stroke-miterlimit:10"/></clipPath><clipPath id="6c01a2fc-f694-4546-a5c5-eb4c9c3523e8"><polygon points="220.96 212.68 150.36 171.72 79.3 212.68 149.9 253.64 220.96 212.68" style="fill:none;stroke:#000;stroke-miterlimit:10"/></clipPath><clipPath id="e22344dc-9526-4085-814f-e6bec3002e53"><polygon points="106.92 400.74 106.92 376.29 128.2 364 128.27 388.45 106.92 400.74" style="fill:none;stroke:#000;stroke-miterlimit:10"/></clipPath><clipPath id="ab0d0acc-4e73-433b-a10e-794186a006ef"><polygon points="85.57 388.45 85.64 364 106.92 376.29 106.92 400.74 85.57 388.45" style="fill:none;stroke:#000;stroke-miterlimit:10"/></clipPath><clipPath id="fad08869-8ee2-45a5-b905-621a34287c60"><polygon points="85.7 364 106.84 351.71 128.13 364 106.99 376.29 85.7 364" style="fill:none;stroke:#000;stroke-miterlimit:10"/></clipPath><clipPath id="38acb295-9f23-4e23-9b30-8f5352159810"><polygon points="106.91 375.5 106.91 334.74 128.2 322.45 128.31 363.21 106.91 375.5" style="fill:none;stroke:#000;stroke-miterlimit:10"/></clipPath><clipPath id="35037fa6-dac6-4ae0-8892-37c9cb543217"><polygon points="85.52 363.22 85.63 322.45 106.91 334.74 106.91 375.5 85.52 363.22" style="fill:none;stroke:#000;stroke-miterlimit:10"/></clipPath><clipPath id="d0a67cb6-4746-4a13-9ae3-e8a8284fcde3"><polygon points="85.7 322.45 106.84 310.17 128.13 322.46 106.98 334.74 85.7 322.45" style="fill:none;stroke:#000;stroke-miterlimit:10"/></clipPath><clipPath id="b79f422d-498d-4b65-877d-e53dd6a2fd10"><polygon points="158.13 198.49 136.99 186.2 112.42 200.39 133.56 212.68 158.13 198.49" style="fill:none"/></clipPath></defs><title>bot-yb</title><g style="isolation:isolate"><polygon points="124.64 442.67 124.66 434.52 89.25 414.08 89.17 422.19 124.64 442.67" style="fill:#606060"/><g style="clip-path:url(#21fc16f1-86f9-4111-a80b-573dc1399ad8)"><polyline points="89.25 414.08 124.66 434.52 124.64 442.67 89.17 422.19 89.25 414.08" style="fill:#606060;stroke:#000;stroke-miterlimit:10"/></g><polygon points="124.64 442.67 124.66 434.52 89.25 414.08 89.17 422.19 124.64 442.67" style="fill:none;stroke:#000;stroke-miterlimit:10"/></g><g style="isolation:isolate"><polygon points="145.96 430.38 145.94 422.23 124.66 434.52 124.68 442.67 145.96 430.38" style="fill:#231f20"/><g style="clip-path:url(#b98e7ad7-c8a1-4da2-b7dd-a1995093f723)"><polyline points="124.66 434.52 145.94 422.23 145.96 430.38 124.68 442.67 124.66 434.52" style="fill:#231f20;stroke:#000;stroke-miterlimit:10"/></g><polygon points="145.96 430.38 145.94 422.23 124.66 434.52 124.68 442.67 145.96 430.38" style="fill:none;stroke:#000;stroke-miterlimit:10"/></g><g style="isolation:isolate"><g style="clip-path:url(#1c13bbde-5751-4a38-8928-afb14b0bf519)"><polyline points="145.96 422.32 110.49 401.84 89.25 414.08 124.81 434.61 145.96 422.32" style="fill:#848484;stroke:#000;stroke-miterlimit:10"/></g><polygon points="89.25 414.08 110.49 401.84 145.96 422.32 124.81 434.61 89.25 414.08" style="fill:none;stroke:#000;stroke-miterlimit:10"/></g><g style="isolation:isolate"><polygon points="124.5 434.3 124.59 401.69 103.31 389.4 103.22 422.01 124.5 434.3" style="fill:#606060"/><g style="clip-path:url(#ac01c761-f8b6-4dbb-a997-b2d635cd37d6)"><polyline points="103.31 389.4 124.59 401.69 124.5 434.3 103.22 422.01 103.31 389.4" style="fill:#606060;stroke:#000;stroke-miterlimit:10"/></g><polygon points="124.5 434.3 124.59 401.69 103.31 389.4 103.22 422.01 124.5 434.3" style="fill:none;stroke:#000;stroke-miterlimit:10"/></g><g style="isolation:isolate"><polygon points="145.96 422.01 145.87 389.4 124.59 401.69 124.68 434.3 145.96 422.01" style="fill:#231f20"/><g style="clip-path:url(#73f45a7e-59ec-4d0d-9ec7-cd3c4b3cb2ca)"><polyline points="124.59 401.69 145.87 389.4 145.96 422.01 124.68 434.3 124.59 401.69" style="fill:#231f20;stroke:#000;stroke-miterlimit:10"/></g><polygon points="145.96 422.01 145.87 389.4 124.59 401.69 124.68 434.3 145.96 422.01" style="fill:none;stroke:#000;stroke-miterlimit:10"/></g><g style="isolation:isolate"><polygon points="174.44 414.08 174.46 405.93 139.06 385.48 138.97 393.6 174.44 414.08" style="fill:#606060"/><g style="clip-path:url(#1500b109-2bff-473c-8990-2687f319e649)"><polyline points="139.06 385.48 174.46 405.93 174.44 414.08 138.97 393.6 139.06 385.48" style="fill:#606060;stroke:#000;stroke-miterlimit:10"/></g><polygon points="174.44 414.08 174.46 405.93 139.06 385.48 138.97 393.6 174.44 414.08" style="fill:none;stroke:#000;stroke-miterlimit:10"/></g><g style="isolation:isolate"><polygon points="195.77 401.79 195.74 393.64 174.46 405.93 174.49 414.08 195.77 401.79" style="fill:#231f20"/><g style="clip-path:url(#2405c8ff-86ce-4d80-9484-32e644108ae5)"><polyline points="174.46 405.93 195.74 393.64 195.77 401.79 174.49 414.08 174.46 405.93" style="fill:#231f20;stroke:#000;stroke-miterlimit:10"/></g><polygon points="195.77 401.79 195.74 393.64 174.46 405.93 174.49 414.08 195.77 401.79" style="fill:none;stroke:#000;stroke-miterlimit:10"/></g><g style="isolation:isolate"><g style="clip-path:url(#f2bd4e05-97df-4e47-975d-16ac6f34f70d)"><polyline points="195.77 393.72 160.29 373.24 139.06 385.48 174.62 406.01 195.77 393.72" style="fill:#848484;stroke:#000;stroke-miterlimit:10"/></g><polygon points="139.06 385.48 160.29 373.24 195.77 393.72 174.62 406.01 139.06 385.48" style="fill:none;stroke:#000;stroke-miterlimit:10"/></g><g style="isolation:isolate"><polygon points="174.3 406.02 174.4 373.41 153.12 361.13 153.02 393.74 174.3 406.02" style="fill:#606060"/><g style="clip-path:url(#a9a225a7-9f3d-4153-84c5-04903b459682)"><polyline points="153.12 361.13 174.4 373.41 174.3 406.02 153.02 393.74 153.12 361.13" style="fill:#606060;stroke:#000;stroke-miterlimit:10"/></g><polygon points="174.3 406.02 174.4 373.41 153.12 361.13 153.02 393.74 174.3 406.02" style="fill:none;stroke:#000;stroke-miterlimit:10"/></g><g style="isolation:isolate"><polygon points="195.77 393.74 195.68 361.13 174.4 373.41 174.49 406.02 195.77 393.74" style="fill:#231f20"/><g style="clip-path:url(#3eb3a618-83c5-4d84-9f97-88ba8cd6f567)"><polyline points="174.4 373.41 195.68 361.13 195.77 393.74 174.49 406.02 174.4 373.41" style="fill:#231f20;stroke:#000;stroke-miterlimit:10"/></g><polygon points="195.77 393.74 195.68 361.13 174.4 373.41 174.49 406.02 195.77 393.74" style="fill:none;stroke:#000;stroke-miterlimit:10"/></g><g style="isolation:isolate"><polygon points="150.13 416.26 150.13 334.74 79.3 293.78 78.96 375.3 150.13 416.26" style="fill:#606060"/><g style="clip-path:url(#6b2cb851-043f-4ee2-b19b-1f450915dadf)"><polyline points="79.3 293.78 150.13 334.74 150.13 416.26 78.96 375.3 79.3 293.78" style="fill:#606060;stroke:#000;stroke-miterlimit:10"/></g><polygon points="150.13 416.26 150.13 334.74 79.3 293.78 78.96 375.3 150.13 416.26" style="fill:none;stroke:#000;stroke-miterlimit:10"/></g><g style="isolation:isolate"><polygon points="221.3 375.3 220.96 293.79 150.13 334.74 150.13 416.26 221.3 375.3" style="fill:#231f20"/><g style="clip-path:url(#e650f22c-be52-48b9-a8a5-1127ccf7ae5f)"><polyline points="150.13 334.74 220.96 293.79 221.3 375.3 150.13 416.26 150.13 334.74" style="fill:#231f20;stroke:#000;stroke-miterlimit:10"/></g><polygon points="221.3 375.3 220.96 293.79 150.13 334.74 150.13 416.26 221.3 375.3" style="fill:none;stroke:#000;stroke-miterlimit:10"/></g><g style="isolation:isolate"><g style="clip-path:url(#c219b1a3-4868-4eef-86f7-045e7f6f142a)"><polyline points="79.3 293.78 150.36 252.82 220.96 293.79 150.13 334.74 79.3 293.78" style="fill:#848484;stroke:#000;stroke-miterlimit:10"/></g><polygon points="220.96 293.79 150.36 252.82 79.3 293.78 149.9 334.74 220.96 293.79" style="fill:none;stroke:#000;stroke-miterlimit:10"/></g><g style="isolation:isolate"><polygon points="150.13 335.15 150.13 253.63 79.3 212.68 78.96 294.19 150.13 335.15" style="fill:#606060"/><g style="clip-path:url(#fca07e68-f417-4fb9-8819-5062a2f8cd2e)"><polyline points="79.3 212.68 150.13 253.63 150.13 335.15 78.96 294.19 79.3 212.68" style="fill:#606060;stroke:#000;stroke-miterlimit:10"/></g><polygon points="150.13 335.15 150.13 253.63 79.3 212.68 78.96 294.19 150.13 335.15" style="fill:none;stroke:#000;stroke-miterlimit:10"/></g><g style="isolation:isolate"><polygon points="221.3 294.19 220.96 212.68 150.13 253.63 150.13 335.15 221.3 294.19" style="fill:#231f20"/><g style="clip-path:url(#1433b190-2900-4e50-b29a-215686e6f9d5)"><polyline points="150.13 253.63 220.96 212.68 221.3 294.19 150.13 335.15 150.13 253.63" style="fill:#231f20;stroke:#000;stroke-miterlimit:10"/></g><polygon points="221.3 294.19 220.96 212.68 150.13 253.63 150.13 335.15 221.3 294.19" style="fill:none;stroke:#000;stroke-miterlimit:10"/></g><g style="isolation:isolate"><g style="clip-path:url(#6c01a2fc-f694-4546-a5c5-eb4c9c3523e8)"><polyline points="79.3 212.68 150.36 171.72 220.96 212.68 150.13 253.63 79.3 212.68" style="fill:#848484;stroke:#000;stroke-miterlimit:10"/></g><polygon points="220.96 212.68 150.36 171.72 79.3 212.68 149.9 253.64 220.96 212.68" style="fill:none;stroke:#000;stroke-miterlimit:10"/></g><g style="isolation:isolate"><g style="clip-path:url(#e22344dc-9526-4085-814f-e6bec3002e53)"><polyline points="128.2 364 106.92 376.29 106.92 400.74 128.27 388.45 128.2 364" style="fill:#231f20;stroke:#000;stroke-miterlimit:10"/></g><polygon points="106.92 400.74 106.92 376.29 128.2 364 128.27 388.45 106.92 400.74" style="fill:none;stroke:#000;stroke-miterlimit:10"/></g><g style="isolation:isolate"><g style="clip-path:url(#ab0d0acc-4e73-433b-a10e-794186a006ef)"><polyline points="106.92 376.29 85.64 364 85.57 388.45 106.92 400.74 106.92 376.29" style="fill:#606060;stroke:#000;stroke-miterlimit:10"/></g><polygon points="85.57 388.45 85.64 364 106.92 376.29 106.92 400.74 85.57 388.45" style="fill:none;stroke:#000;stroke-miterlimit:10"/></g><g style="isolation:isolate"><g style="clip-path:url(#fad08869-8ee2-45a5-b905-621a34287c60)"><polyline points="128.13 364 106.84 351.71 85.7 364 106.99 376.29 128.13 364" style="fill:#848484;stroke:#000;stroke-miterlimit:10"/></g><polygon points="85.7 364 106.84 351.71 128.13 364 106.99 376.29 85.7 364" style="fill:none;stroke:#000;stroke-miterlimit:10"/></g><g style="isolation:isolate"><g style="clip-path:url(#38acb295-9f23-4e23-9b30-8f5352159810)"><polyline points="128.2 322.45 106.91 334.74 106.91 375.5 128.31 363.21 128.2 322.45" style="fill:#231f20;stroke:#000;stroke-miterlimit:10"/></g><polygon points="106.91 375.5 106.91 334.74 128.2 322.45 128.31 363.21 106.91 375.5" style="fill:none;stroke:#000;stroke-miterlimit:10"/></g><g style="isolation:isolate"><g style="clip-path:url(#35037fa6-dac6-4ae0-8892-37c9cb543217)"><polyline points="106.91 334.74 85.63 322.45 85.52 363.22 106.91 375.5 106.91 334.74" style="fill:#606060;stroke:#000;stroke-miterlimit:10"/></g><polygon points="85.52 363.22 85.63 322.45 106.91 334.74 106.91 375.5 85.52 363.22" style="fill:none;stroke:#000;stroke-miterlimit:10"/></g><g style="isolation:isolate"><g style="clip-path:url(#d0a67cb6-4746-4a13-9ae3-e8a8284fcde3)"><polyline points="128.13 322.46 106.84 310.17 85.7 322.45 106.98 334.74 128.13 322.46" style="fill:#848484;stroke:#000;stroke-miterlimit:10"/></g><polygon points="85.7 322.45 106.84 310.17 128.13 322.46 106.98 334.74 85.7 322.45" style="fill:none;stroke:#000;stroke-miterlimit:10"/></g><g style="isolation:isolate"><g style="clip-path:url(#b79f422d-498d-4b65-877d-e53dd6a2fd10)"><polyline points="124.7 193.3 158.13 198.49 133.56 212.68 124.7 193.3" style="fill:red"/></g></g></svg>