<svg id="e7ffbab8-6917-4b4c-9cdd-06d49229ad93" data-name="Layer 9" xmlns="http://www.w3.org/2000/svg" xmlns:xlink="http://www.w3.org/1999/xlink" width="299.99" height="462.24" viewBox="0 0 299.99 462.24"><defs><clipPath id="f32d56d9-792f-42a7-8479-2a068a1120e5"><polygon points="138.55 450.43 138.57 442.28 103.17 421.83 103.08 429.95 138.55 450.43" style="fill:#606060;stroke:#000;stroke-miterlimit:10"/></clipPath><clipPath id="a8df944a-98d2-4bd5-a5d7-104e8442b84f"><polygon points="159.88 438.14 159.85 429.99 138.57 442.28 138.6 450.43 159.88 438.14" style="fill:#231f20;stroke:#000;stroke-miterlimit:10"/></clipPath><clipPath id="e8608376-145f-451f-8fb3-0d774243f9df"><polygon points="103.17 421.83 124.4 409.6 159.88 430.08 138.73 442.37 103.17 421.83" style="fill:none;stroke:#000;stroke-miterlimit:10"/></clipPath><clipPath id="53c89f4a-7895-4d35-a19f-12e0deb63c31"><polygon points="124.36 434.2 124.46 401.59 103.18 389.3 103.08 421.92 124.36 434.2" style="fill:#606060;stroke:#000;stroke-miterlimit:10"/></clipPath><clipPath id="15fc674f-3979-41ec-9645-668ca144dff5"><polygon points="145.83 421.92 145.74 389.3 124.46 401.59 124.55 434.2 145.83 421.92" style="fill:#231f20;stroke:#000;stroke-miterlimit:10"/></clipPath><clipPath id="9dd43f09-c856-4117-999c-ef99089e935a"><polygon points="188.35 422.16 188.38 414.01 152.97 393.56 152.89 401.68 188.35 422.16" style="fill:#606060;stroke:#000;stroke-miterlimit:10"/></clipPath><clipPath id="55614882-555f-4f37-bba2-4d964da4dc8f"><polygon points="209.68 409.87 209.66 401.72 188.38 414.01 188.4 422.16 209.68 409.87" style="fill:#231f20;stroke:#000;stroke-miterlimit:10"/></clipPath><clipPath id="afb6bd1f-30b3-4b34-9054-359596c22119"><polygon points="152.97 393.56 174.21 381.32 209.68 401.81 188.53 414.1 152.97 393.56" style="fill:none;stroke:#000;stroke-miterlimit:10"/></clipPath><clipPath id="f9e4319a-1918-416e-814c-58ea5c156e2d"><polygon points="174.17 405.93 174.26 373.32 152.98 361.03 152.89 393.64 174.17 405.93" style="fill:#606060;stroke:#000;stroke-miterlimit:10"/></clipPath><clipPath id="0377d885-a30f-4a89-b6ed-6a6d1915fed4"><polygon points="195.63 393.64 195.54 361.03 174.26 373.32 174.35 405.93 195.63 393.64" style="fill:#231f20;stroke:#000;stroke-miterlimit:10"/></clipPath><clipPath id="b90f7e76-3334-4944-a690-88cf592c1ee6"><polygon points="150 416.16 150 334.65 79.17 293.69 78.82 375.2 150 416.16" style="fill:#606060;stroke:#000;stroke-miterlimit:10"/></clipPath><clipPath id="a92c7dc4-8c47-452f-ba52-d7c1a9020f63"><polygon points="221.17 375.2 220.82 293.69 150 334.65 150 416.16 221.17 375.2" style="fill:#231f20;stroke:#000;stroke-miterlimit:10"/></clipPath><clipPath id="07bb2392-496b-49f4-adb3-aa7c766b732a"><polygon points="173.79 291.88 173.7 258.25 202.97 241.35 203.06 274.98 173.79 291.88" style="fill:none"/></clipPath></defs><title>bot-yf</title><g style="isolation:isolate"><polygon points="138.55 450.43 138.57 442.28 103.17 421.83 103.08 429.95 138.55 450.43" style="fill:#606060"/><g style="clip-path:url(#f32d56d9-792f-42a7-8479-2a068a1120e5)"><polyline points="103.17 421.83 138.57 442.28 138.55 450.43 103.08 429.95 103.17 421.83" style="fill:#606060;stroke:#000;stroke-miterlimit:10"/></g><polygon points="138.55 450.43 138.57 442.28 103.17 421.83 103.08 429.95 138.55 450.43" style="fill:none;stroke:#000;stroke-miterlimit:10"/></g><g style="isolation:isolate"><polygon points="159.88 438.14 159.85 429.99 138.57 442.28 138.6 450.43 159.88 438.14" style="fill:#231f20"/><g style="clip-path:url(#a8df944a-98d2-4bd5-a5d7-104e8442b84f)"><polyline points="138.57 442.28 159.85 429.99 159.88 438.14 138.6 450.43 138.57 442.28" style="fill:#231f20;stroke:#000;stroke-miterlimit:10"/></g><polygon points="159.88 438.14 159.85 429.99 138.57 442.28 138.6 450.43 159.88 438.14" style="fill:none;stroke:#000;stroke-miterlimit:10"/></g><g style="isolation:isolate"><g style="clip-path:url(#e8608376-145f-451f-8fb3-0d774243f9df)"><polyline points="159.88 430.08 124.4 409.6 103.17 421.83 138.73 442.37 159.88 430.08" style="fill:#848484;stroke:#000;stroke-miterlimit:10"/></g><polygon points="103.17 421.83 124.4 409.6 159.88 430.08 138.73 442.37 103.17 421.83" style="fill:none;stroke:#000;stroke-miterlimit:10"/></g><g style="isolation:isolate"><polygon points="124.36 434.2 124.46 401.59 103.18 389.3 103.08 421.92 124.36 434.2" style="fill:#606060"/><g style="clip-path:url(#53c89f4a-7895-4d35-a19f-12e0deb63c31)"><polyline points="103.18 389.3 124.46 401.59 124.36 434.2 103.08 421.92 103.18 389.3" style="fill:#606060;stroke:#000;stroke-miterlimit:10"/></g><polygon points="124.36 434.2 124.46 401.59 103.18 389.3 103.08 421.92 124.36 434.2" style="fill:none;stroke:#000;stroke-miterlimit:10"/></g><g style="isolation:isolate"><polygon points="145.83 421.92 145.74 389.3 124.46 401.59 124.55 434.2 145.83 421.92" style="fill:#231f20"/><g style="clip-path:url(#15fc674f-3979-41ec-9645-668ca144dff5)"><polyline points="124.46 401.59 145.74 389.3 145.83 421.92 124.55 434.2 124.46 401.59" style="fill:#231f20;stroke:#000;stroke-miterlimit:10"/></g><polygon points="145.83 421.92 145.74 389.3 124.46 401.59 124.55 434.2 145.83 421.92" style="fill:none;stroke:#000;stroke-miterlimit:10"/></g><g style="isolation:isolate"><polygon points="188.35 422.16 188.38 414.01 152.97 393.56 152.89 401.68 188.35 422.16" style="fill:#606060"/><g style="clip-path:url(#9dd43f09-c856-4117-999c-ef99089e935a)"><polyline points="152.97 393.56 188.38 414.01 188.35 422.16 152.89 401.68 152.97 393.56" style="fill:#606060;stroke:#000;stroke-miterlimit:10"/></g><polygon points="188.35 422.16 188.38 414.01 152.97 393.56 152.89 401.68 188.35 422.16" style="fill:none;stroke:#000;stroke-miterlimit:10"/></g><g style="isolation:isolate"><polygon points="209.68 409.87 209.66 401.72 188.38 414.01 188.4 422.16 209.68 409.87" style="fill:#231f20"/><g style="clip-path:url(#55614882-555f-4f37-bba2-4d964da4dc8f)"><polyline points="188.38 414.01 209.66 401.72 209.68 409.87 188.4 422.16 188.38 414.01" style="fill:#231f20;stroke:#000;stroke-miterlimit:10"/></g><polygon points="209.68 409.87 209.66 401.72 188.38 414.01 188.4 422.16 209.68 409.87" style="fill:none;stroke:#000;stroke-miterlimit:10"/></g><g style="isolation:isolate"><g style="clip-path:url(#afb6bd1f-30b3-4b34-9054-359596c22119)"><polyline points="209.68 401.81 174.21 381.32 152.97 393.56 188.53 414.1 209.68 401.81" style="fill:#848484;stroke:#000;stroke-miterlimit:10"/></g><polygon points="152.97 393.56 174.21 381.32 209.68 401.81 188.53 414.1 152.97 393.56" style="fill:none;stroke:#000;stroke-miterlimit:10"/></g><g style="isolation:isolate"><polygon points="174.17 405.93 174.26 373.32 152.98 361.03 152.89 393.64 174.17 405.93" style="fill:#606060"/><g style="clip-path:url(#f9e4319a-1918-416e-814c-58ea5c156e2d)"><polyline points="152.98 361.03 174.26 373.32 174.17 405.93 152.89 393.64 152.98 361.03" style="fill:#606060;stroke:#000;stroke-miterlimit:10"/></g><polygon points="174.17 405.93 174.26 373.32 152.98 361.03 152.89 393.64 174.17 405.93" style="fill:none;stroke:#000;stroke-miterlimit:10"/></g><g style="isolation:isolate"><polygon points="195.63 393.64 195.54 361.03 174.26 373.32 174.35 405.93 195.63 393.64" style="fill:#231f20"/><g style="clip-path:url(#0377d885-a30f-4a89-b6ed-6a6d1915fed4)"><polyline points="174.26 373.32 195.54 361.03 195.63 393.64 174.35 405.93 174.26 373.32" style="fill:#231f20;stroke:#000;stroke-miterlimit:10"/></g><polygon points="195.63 393.64 195.54 361.03 174.26 373.32 174.35 405.93 195.63 393.64" style="fill:none;stroke:#000;stroke-miterlimit:10"/></g><g style="isolation:isolate"><polygon points="150 416.16 150 334.65 79.17 293.69 78.82 375.2 150 416.16" style="fill:#606060"/><g style="clip-path:url(#b90f7e76-3334-4944-a690-88cf592c1ee6)"><polyline points="79.17 293.69 150 334.65 150 416.16 78.82 375.2 79.17 293.69" style="fill:#606060;stroke:#000;stroke-miterlimit:10"/></g><polygon points="150 416.16 150 334.65 79.17 293.69 78.82 375.2 150 416.16" style="fill:none;stroke:#000;stroke-miterlimit:10"/></g><g style="isolation:isolate"><polygon points="221.17 375.2 220.82 293.69 150 334.65 150 416.16 221.17 375.2" style="fill:#231f20"/><g style="clip-path:url(#a92c7dc4-8c47-452f-ba52-d7c1a9020f63)"><polyline points="150 334.65 220.82 293.69 221.17 375.2 150 416.16 150 334.65" style="fill:#231f20;stroke:#000;stroke-miterlimit:10"/></g><polygon points="221.17 375.2 220.82 293.69 150 334.65 150 416.16 221.17 375.2" style="fill:none;stroke:#000;stroke-miterlimit:10"/></g><g style="isolation:isolate"><polyline points="79.17 293.69 150.22 252.73 220.82 293.69 150 334.65 79.17 293.69" style="fill:#848484;stroke:#000;stroke-miterlimit:10"/></g><g style="isolation:isolate"><polyline points="79.17 212.58 149.99 253.54 149.99 335.05 78.82 294.1 79.17 212.58" style="fill:#606060;stroke:#000;stroke-miterlimit:10"/></g><g style="isolation:isolate"><polyline points="149.99 253.54 220.82 212.58 221.17 294.1 149.99 335.05 149.99 253.54" style="fill:#231f20;stroke:#000;stroke-miterlimit:10"/></g><g style="isolation:isolate"><polyline points="79.17 212.58 150.22 171.62 220.82 212.58 149.99 253.54 79.17 212.58" style="fill:#848484;stroke:#000;stroke-miterlimit:10"/></g><polyline points="99.22 332.87 135.09 352.64 135.51 377.09 99.64 357.32 99.22 332.87" style="fill:#606060;stroke:#000;stroke-miterlimit:10"/><g style="isolation:isolate"><polyline points="134.82 352.64 155.85 339.93 156.41 364.38 135.38 377.09 134.82 352.64" style="fill:#606060;stroke:#000;stroke-miterlimit:10"/></g><g style="isolation:isolate"><polyline points="155.91 339.93 120.04 320.17 99.15 332.88 135.02 352.64 155.91 339.93" style="fill:#848484;stroke:#000;stroke-miterlimit:10"/></g><g style="isolation:isolate"><polyline points="156.41 364.51 177.44 351.8 178 376.24 156.97 388.95 156.41 364.51" style="fill:red;stroke:#000;stroke-miterlimit:10"/></g><g style="isolation:isolate"><polyline points="134.96 352.65 155.99 339.93 177.38 351.79 156.34 364.5 134.96 352.65" style="fill:#848484;stroke:#000;stroke-miterlimit:10"/></g><g style="isolation:isolate"><polyline points="134.88 352.64 156.41 364.51 156.9 388.95 135.3 377.09 134.88 352.64" style="fill:#606060;stroke:#000;stroke-miterlimit:10"/></g><g style="isolation:isolate"><g style="clip-path:url(#07bb2392-496b-49f4-adb3-aa7c766b732a)"><path d="M188.4,274.81c-3.95,2.28-7.15.45-7.16-4.08a15.67,15.67,0,0,1,7.11-12.32c3.94-2.27,7.15-.45,7.16,4.08a15.69,15.69,0,0,1-7.11,12.32m-.07-24.2c-7.68,4.43-13.9,15.21-13.88,24s6.29,12.4,14,8,13.9-15.22,13.87-24-6.29-12.4-14-8"/><path d="M188.43,282.61c-7.68,4.43-13.95.86-14-8s6.2-19.61,13.88-24,13.94-.86,14,8-6.2,19.61-13.87,24m-.09-32.82c-8.07,4.66-14.61,16-14.59,25.26s6.61,13,14.68,8.37,14.61-16,14.59-25.26-6.62-13-14.68-8.37" style="fill:#fff"/><path d="M188.36,258.41a15.67,15.67,0,0,0-7.11,12.32c0,4.53,3.22,6.36,7.16,4.08a15.69,15.69,0,0,0,7.11-12.32c0-4.53-3.22-6.36-7.16-4.08" style="fill:red"/></g></g><g style="isolation:isolate"><path d="M154.4,221.77l33.43,5.2L179,207.58,154.4,221.77" style="fill:red"/></g></svg>