<svg id="e0dd1632-7b1e-4726-bf4b-815466d755c0" data-name="Layer 1" xmlns="http://www.w3.org/2000/svg" xmlns:xlink="http://www.w3.org/1999/xlink" width="422.84" height="264.93" viewBox="0 0 422.84 264.93"><defs><clipPath id="4dbadddb-6a50-46d3-9a86-d63270195a86"><polygon points="28.55 122.46 210.82 16.54 394.29 122.46 212.02 228.39 28.55 122.46" style="fill:none"/></clipPath><clipPath id="402382d7-1707-4538-bfba-4102e4c630b0"><polygon points="81.14 122.47 211 47 341.71 122.47 211.85 197.93 81.14 122.47" style="fill:none"/></clipPath><clipPath id="72f5c62d-1229-423c-96ef-717b68f414a7"><polygon points="119.3 122.47 211.12 69.11 303.54 122.47 211.72 175.83 119.3 122.47" style="fill:none"/></clipPath><radialGradient id="bd844f8a-8e9e-4e62-b8a2-c5b42895b4b3" cx="210.11" cy="90.22" r="45.45" gradientTransform="translate(0 69.34) scale(1 0.57)" gradientUnits="userSpaceOnUse"><stop offset="0" stop-color="#fff"/><stop offset="0.37" stop-color="#ffffd6"/><stop offset="0.51" stop-color="#ffffa8"/><stop offset="0.6" stop-color="#ffff00"/><stop offset="0.68" stop-color="#ffda00"/><stop offset="0.75" stop-color="#ffca00"/><stop offset="0.8" stop-color="#ffca00"/><stop offset="0.86" stop-color="#ffca00"/><stop offset="0.91" stop-color="#ffca00"/><stop offset="0.95" stop-color="#ffca00"/><stop offset="0.99" stop-color="#ffca00"/><stop offset="1" stop-color="#f9a602"/></radialGradient></defs><title>endportal</title><g style="isolation:isolate"><g style="clip-path:url(#4dbadddb-6a50-46d3-9a86-d63270195a86)"><path d="M138.37,164.92c-40.61-23.45-40.82-61.46-.48-84.9s106-23.45,146.57,0,40.82,61.46.48,84.9-106,23.45-146.57,0M302.56,69.5C251.9,40.25,170,40.25,119.69,69.5s-50.06,76.67.6,105.92,132.54,29.25,182.87,0,50.07-76.67-.6-105.93" style="fill:#f9a602"/></g></g><g style="isolation:isolate"><g style="clip-path:url(#402382d7-1707-4538-bfba-4102e4c630b0)"><path d="M156.71,154.26c-30.42-17.56-30.58-46-.36-63.59s79.37-17.56,109.79,0,30.58,46,.36,63.6-79.37,17.56-109.79,0M276.35,84.73c-36.1-20.84-94.42-20.84-130.28,0s-35.67,54.63.42,75.47,94.42,20.84,130.28,0,35.67-54.63-.42-75.47" style="fill:#f9a602"/></g></g><g style="isolation:isolate"><g style="clip-path:url(#72f5c62d-1229-423c-96ef-717b68f414a7)"><path d="M257.33,95.79c-25.52-14.73-66.77-14.73-92.12,0s-25.22,38.63.3,53.36,66.77,14.73,92.12,0,25.22-38.63-.3-53.36" style="fill:#f9a602"/></g></g><ellipse cx="210.11" cy="120.46" rx="45.45" ry="25.75" style="fill:url(#bd844f8a-8e9e-4e62-b8a2-c5b42895b4b3)"/></svg>