<svg id="3aad18fa-9cc7-4230-845b-5a7c2c050cc5" data-name="Layer 1" xmlns="http://www.w3.org/2000/svg" xmlns:xlink="http://www.w3.org/1999/xlink" width="422.84" height="529.8" viewBox="0 0 422.84 529.8"><defs><linearGradient id="b8edbe9d-31a8-4000-a268-bd1eded6e752" x1="262.38" y1="828.7" x2="306.3" y2="872.63" gradientTransform="translate(-70.1 -537)" gradientUnits="userSpaceOnUse"><stop offset="0" stop-color="#fff"/><stop offset="0.05" stop-color="#fff" stop-opacity="0.95"/><stop offset="0.15" stop-color="#fff" stop-opacity="0.8"/><stop offset="0.28" stop-color="#fff" stop-opacity="0.57"/><stop offset="0.44" stop-color="#fff" stop-opacity="0.26"/><stop offset="0.56" stop-color="#fff" stop-opacity="0"/></linearGradient></defs><title>floatingobj-key-1</title><path d="M149.83,384.95,163.12,395a6.67,6.67,0,0,0,9.34-1.29L186.4,375.3c3.77-5-3.18-7.4-.71-10.66" style="fill:#efefef;stroke:#000;stroke-miterlimit:10"/><path d="M180.86,371l8.25-10.9c2.47-3.26,6.88,2.51,10.45-2.21l8.31-11a6.67,6.67,0,0,0-1.29-9.34l-13.29-10.06a6.67,6.67,0,0,0-9.34,1.29L143.72,382a6.67,6.67,0,0,0,1.29,9.34l13.29,10.06a6.67,6.67,0,0,0,9.34-1.29l13.94-18.41C185.34,376.7,178.39,374.28,180.86,371Z" style="fill:#b2b2b2;stroke:#000;stroke-miterlimit:10"/><rect x="150.29" y="369.76" width="19.85" height="29.22" rx="0.5" ry="0.5" transform="translate(264.46 -18.79) rotate(37.13)"/><rect x="151.69" y="379.36" width="4" height="14.5" transform="translate(264.49 -14.4) rotate(37.13)" style="fill:#ffda00"/><rect x="157.48" y="383.73" width="4" height="14.5" transform="translate(268.31 -17.01) rotate(37.13)" style="fill:#ffda00"/><rect x="186.7" y="252.03" width="90" height="77.14" rx="25.83" ry="25.83" transform="translate(222.36 -80.95) rotate(37.13)" style="fill:#848484;stroke:#000;stroke-miterlimit:10"/><rect x="175.06" y="267.4" width="90" height="77.14" rx="25.83" ry="25.83" transform="translate(229.28 -70.81) rotate(37.13)" style="fill:#4f4f4f;stroke:#000;stroke-miterlimit:10"/><rect x="182.18" y="278.33" width="64.29" height="70.45" rx="19.58" ry="19.58" transform="translate(232.69 -65.81) rotate(37.13)" style="fill:#ffda00;stroke:#231f20;stroke-miterlimit:10;stroke-width:2px"/><rect x="188.53" y="284.74" width="51.43" height="57.86" rx="18.25" ry="18.25" transform="translate(232.74 -65.73) rotate(37.13)" style="fill:url(#b8edbe9d-31a8-4000-a268-bd1eded6e752)"/></svg>