<svg id="895e8c6f-9381-4d7a-99ad-d3aa1f42ed08" data-name="Layer 1" xmlns="http://www.w3.org/2000/svg" width="422.84" height="529.8" viewBox="0 0 422.84 529.8"><title>floatingobj-gem-1</title><polygon points="169.89 276.32 211.6 356.18 253.31 276.32 169.89 276.32" style="fill:#d00"/><polygon points="169.89 276.32 140.66 340.49 211.6 356.18 169.89 276.32" style="fill:#a00000"/><polygon points="169.89 276.32 128.3 252.2 140.66 340.49 169.89 276.32" style="fill:#c60000"/><polygon points="253.31 276.32 211.6 356.18 282.07 340.49 253.31 276.32" style="fill:#930000"/><polygon points="294.55 252.2 253.31 276.32 282.07 340.49 294.55 252.2" style="fill:#b50000"/><polygon points="211.6 213.69 169.89 276.32 253.31 276.32 211.6 213.69" style="fill:#b50000"/><polygon points="211.6 213.69 128.3 252.2 169.89 276.32 211.6 213.69" style="fill:red"/><polygon points="211.6 213.69 253.31 276.32 294.55 252.2 211.6 213.69" style="fill:#820202"/><polygon points="211.6 356.18 140.66 340.49 211.72 403.47 211.6 356.18" style="fill:#960000"/><polygon points="282.07 340.49 211.6 356.18 211.72 403.47 282.07 340.49" style="fill:#750000"/><polygon points="211.6 213.69 157.9 227.78 128.3 252.2 211.6 213.69" style="fill:#b70000"/><polygon points="294.55 252.2 211.6 213.69 271.37 229.02 294.55 252.2" style="fill:#770303"/></svg>