<svg id="6b1b1b25-8ac8-4eb3-a295-e45c63b9082d" data-name="Layer 6" xmlns="http://www.w3.org/2000/svg" xmlns:xlink="http://www.w3.org/1999/xlink" width="299.99" height="462.24" viewBox="0 0 299.99 462.24"><defs><clipPath id="8f4508ec-e272-4ac6-a400-522dddcb0d1e"><polygon points="162.07 450.52 162.04 442.37 197.45 421.93 197.53 430.05 162.07 450.52" style="fill:none;stroke:#000;stroke-miterlimit:10"/></clipPath><clipPath id="722ca467-347a-4d7d-aa27-683e57acf4d0"><polygon points="140.74 438.24 140.76 430.09 162.04 442.37 162.02 450.52 140.74 438.24" style="fill:none;stroke:#000;stroke-miterlimit:10"/></clipPath><clipPath id="f8c09e1b-2d20-42da-ba80-ffdfef520242"><polygon points="197.45 421.93 176.22 409.69 140.74 430.17 161.89 442.46 197.45 421.93" style="fill:none;stroke:#000;stroke-miterlimit:10"/></clipPath><clipPath id="fa3260f2-4f93-4c7b-b3ab-8726ff3d10ea"><polygon points="176.25 434.3 176.16 401.69 197.44 389.4 197.53 422.01 176.25 434.3" style="fill:none;stroke:#000;stroke-miterlimit:10"/></clipPath><clipPath id="77865ec2-dc02-415a-844a-09bb8a8f54ca"><polygon points="154.79 422.01 154.88 389.4 176.16 401.69 176.07 434.3 154.79 422.01" style="fill:none;stroke:#000;stroke-miterlimit:10"/></clipPath><clipPath id="d868a176-10df-4102-9e8f-fae052ad628b"><polygon points="112.26 422.25 112.24 414.1 147.65 393.66 147.73 401.78 112.26 422.25" style="fill:none;stroke:#000;stroke-miterlimit:10"/></clipPath><clipPath id="20081341-6866-4a1e-9185-708a5857e87d"><polygon points="90.94 409.97 90.96 401.82 112.24 414.1 112.22 422.25 90.94 409.97" style="fill:none;stroke:#000;stroke-miterlimit:10"/></clipPath><clipPath id="2fdca04a-11d6-475b-a0a9-1b321e0cae27"><polygon points="147.65 393.66 126.41 381.42 90.94 401.9 112.09 414.19 147.65 393.66" style="fill:none;stroke:#000;stroke-miterlimit:10"/></clipPath><clipPath id="2152271f-f877-40af-b071-6dec87af3035"><polygon points="126.45 406.02 126.36 373.41 147.64 361.13 147.73 393.74 126.45 406.02" style="fill:none;stroke:#000;stroke-miterlimit:10"/></clipPath><clipPath id="9f6dc44e-5ad1-4adf-985b-960d2c308edb"><polygon points="104.99 393.74 105.08 361.13 126.36 373.41 126.27 406.02 104.99 393.74" style="fill:none;stroke:#000;stroke-miterlimit:10"/></clipPath><clipPath id="19361f9a-5536-4f34-9606-7e69179926fe"><polygon points="75.54 320.26 75.96 295.81 111.84 276.05 111.42 300.5 75.54 320.26" style="fill:none;stroke:#000;stroke-miterlimit:10"/></clipPath><clipPath id="4dc4233e-cffc-407a-924a-e4d0008254f1"><polygon points="54.65 307.56 55.21 283.11 76.24 295.82 75.68 320.26 54.65 307.56" style="fill:none;stroke:#000;stroke-miterlimit:10"/></clipPath><clipPath id="5433d4cf-d7af-4bfb-b348-7e679a8e4078"><polygon points="111.91 276.05 91.02 263.34 55.14 283.11 76.03 295.81 111.91 276.05" style="fill:none;stroke:#000;stroke-miterlimit:10"/></clipPath><clipPath id="aafae67e-bdf3-47d1-9dbf-eb30ef8e5f27"><polygon points="33.68 294.97 55.06 283.11 76.1 295.82 54.72 307.68 33.68 294.97" style="fill:none;stroke:#000;stroke-miterlimit:10"/></clipPath><clipPath id="ced6f2b9-7faa-48af-bf14-2de206e17fdd"><polygon points="54.15 332.13 54.64 307.68 76.17 295.82 75.75 320.27 54.15 332.13" style="fill:none;stroke:#000;stroke-miterlimit:10"/></clipPath><clipPath id="84d2eddd-08f2-4328-8286-bd8a2a470010"><polygon points="79.8 293.79 150.4 252.82 221.45 293.78 150.85 334.74 79.8 293.79" style="fill:none;stroke:#000;stroke-miterlimit:10"/></clipPath><clipPath id="dbe5313e-d44f-4e78-b6f2-05cba324915a"><polygon points="197.53 400.31 197.53 375.85 218.82 363.56 218.89 388.02 197.53 400.31" style="fill:none;stroke:#000;stroke-miterlimit:10"/></clipPath><clipPath id="5d8be084-a5b8-4cb2-8cbe-91d7994c3c57"><polygon points="176.19 388.02 176.25 363.57 197.53 375.85 197.53 400.31 176.19 388.02" style="fill:none;stroke:#000;stroke-miterlimit:10"/></clipPath><clipPath id="cc32ba36-f228-4e6f-b8af-7e5d4f33b80a"><polygon points="176.32 363.57 197.46 351.28 218.75 363.57 197.61 375.86 176.32 363.57" style="fill:none;stroke:#000;stroke-miterlimit:10"/></clipPath><clipPath id="a1367f19-6e67-45d8-9dca-078aa6b5a626"><polygon points="197.53 375.07 197.53 334.31 218.82 322.02 218.93 362.78 197.53 375.07" style="fill:none;stroke:#000;stroke-miterlimit:10"/></clipPath><clipPath id="c4b326af-16b7-47a3-9e7a-10c0b05bb655"><polygon points="176.14 362.78 176.25 322.02 197.53 334.31 197.53 375.07 176.14 362.78" style="fill:none;stroke:#000;stroke-miterlimit:10"/></clipPath><clipPath id="dfbd8951-b3b0-4c36-a7d1-ac71cffcdf67"><polygon points="176.32 322.02 197.46 309.73 218.75 322.02 197.6 334.31 176.32 322.02" style="fill:none;stroke:#000;stroke-miterlimit:10"/></clipPath></defs><title>bot-xf</title><g style="isolation:isolate"><g style="clip-path:url(#8f4508ec-e272-4ac6-a400-522dddcb0d1e)"><polyline points="197.45 421.93 162.04 442.37 162.07 450.52 197.53 430.05 197.45 421.93" style="fill:#a8a8a8;stroke:#000;stroke-miterlimit:10"/></g><polygon points="162.07 450.52 162.04 442.37 197.45 421.93 197.53 430.05 162.07 450.52" style="fill:none;stroke:#000;stroke-miterlimit:10"/></g><g style="isolation:isolate"><g style="clip-path:url(#722ca467-347a-4d7d-aa27-683e57acf4d0)"><polyline points="162.04 442.37 140.76 430.09 140.74 438.24 162.02 450.52 162.04 442.37" style="fill:#d3d3d3;stroke:#000;stroke-miterlimit:10"/></g><polygon points="140.74 438.24 140.76 430.09 162.04 442.37 162.02 450.52 140.74 438.24" style="fill:none;stroke:#000;stroke-miterlimit:10"/></g><g style="isolation:isolate"><g style="clip-path:url(#f8c09e1b-2d20-42da-ba80-ffdfef520242)"><polyline points="140.74 430.17 176.22 409.69 197.45 421.93 161.89 442.46 140.74 430.17" style="fill:#fff;stroke:#000;stroke-miterlimit:10"/></g><polygon points="197.45 421.93 176.22 409.69 140.74 430.17 161.89 442.46 197.45 421.93" style="fill:none;stroke:#000;stroke-miterlimit:10"/></g><g style="isolation:isolate"><g style="clip-path:url(#fa3260f2-4f93-4c7b-b3ab-8726ff3d10ea)"><polyline points="197.44 389.4 176.16 401.69 176.25 434.3 197.53 422.01 197.44 389.4" style="fill:#a8a8a8;stroke:#000;stroke-miterlimit:10"/></g><polygon points="176.25 434.3 176.16 401.69 197.44 389.4 197.53 422.01 176.25 434.3" style="fill:none;stroke:#000;stroke-miterlimit:10"/></g><g style="isolation:isolate"><g style="clip-path:url(#77865ec2-dc02-415a-844a-09bb8a8f54ca)"><polyline points="176.16 401.69 154.88 389.4 154.79 422.01 176.07 434.3 176.16 401.69" style="fill:#d3d3d3;stroke:#000;stroke-miterlimit:10"/></g><polygon points="154.79 422.01 154.88 389.4 176.16 401.69 176.07 434.3 154.79 422.01" style="fill:none;stroke:#000;stroke-miterlimit:10"/></g><g style="isolation:isolate"><g style="clip-path:url(#d868a176-10df-4102-9e8f-fae052ad628b)"><polyline points="147.65 393.66 112.24 414.1 112.26 422.25 147.73 401.78 147.65 393.66" style="fill:#a8a8a8;stroke:#000;stroke-miterlimit:10"/></g><polygon points="112.26 422.25 112.24 414.1 147.65 393.66 147.73 401.78 112.26 422.25" style="fill:none;stroke:#000;stroke-miterlimit:10"/></g><g style="isolation:isolate"><g style="clip-path:url(#20081341-6866-4a1e-9185-708a5857e87d)"><polyline points="112.24 414.1 90.96 401.82 90.94 409.97 112.22 422.25 112.24 414.1" style="fill:#d3d3d3;stroke:#000;stroke-miterlimit:10"/></g><polygon points="90.94 409.97 90.96 401.82 112.24 414.1 112.22 422.25 90.94 409.97" style="fill:none;stroke:#000;stroke-miterlimit:10"/></g><g style="isolation:isolate"><g style="clip-path:url(#2fdca04a-11d6-475b-a0a9-1b321e0cae27)"><polyline points="90.94 401.9 126.41 381.42 147.65 393.66 112.09 414.19 90.94 401.9" style="fill:#fff;stroke:#000;stroke-miterlimit:10"/></g><polygon points="147.65 393.66 126.41 381.42 90.94 401.9 112.09 414.19 147.65 393.66" style="fill:none;stroke:#000;stroke-miterlimit:10"/></g><g style="isolation:isolate"><g style="clip-path:url(#2152271f-f877-40af-b071-6dec87af3035)"><polyline points="147.64 361.13 126.36 373.41 126.45 406.02 147.73 393.74 147.64 361.13" style="fill:#a8a8a8;stroke:#000;stroke-miterlimit:10"/></g><polygon points="126.45 406.02 126.36 373.41 147.64 361.13 147.73 393.74 126.45 406.02" style="fill:none;stroke:#000;stroke-miterlimit:10"/></g><g style="isolation:isolate"><g style="clip-path:url(#9f6dc44e-5ad1-4adf-985b-960d2c308edb)"><polyline points="126.36 373.41 105.08 361.13 104.99 393.74 126.27 406.02 126.36 373.41" style="fill:#d3d3d3;stroke:#000;stroke-miterlimit:10"/></g><polygon points="104.99 393.74 105.08 361.13 126.36 373.41 126.27 406.02 104.99 393.74" style="fill:none;stroke:#000;stroke-miterlimit:10"/></g><g style="isolation:isolate"><g style="clip-path:url(#19361f9a-5536-4f34-9606-7e69179926fe)"><polyline points="111.84 276.05 75.96 295.81 75.54 320.26 111.42 300.5 111.84 276.05" style="fill:#a8a8a8;stroke:#000;stroke-miterlimit:10"/></g><polygon points="75.54 320.26 75.96 295.81 111.84 276.05 111.42 300.5 75.54 320.26" style="fill:none;stroke:#000;stroke-miterlimit:10"/></g><g style="isolation:isolate"><g style="clip-path:url(#4dc4233e-cffc-407a-924a-e4d0008254f1)"><polyline points="76.24 295.82 55.21 283.11 54.65 307.56 75.68 320.26 76.24 295.82" style="fill:#d3d3d3;stroke:#000;stroke-miterlimit:10"/></g><polygon points="54.65 307.56 55.21 283.11 76.24 295.82 75.68 320.26 54.65 307.56" style="fill:none;stroke:#000;stroke-miterlimit:10"/></g><g style="isolation:isolate"><g style="clip-path:url(#5433d4cf-d7af-4bfb-b348-7e679a8e4078)"><polyline points="55.14 283.11 91.02 263.34 111.91 276.05 76.03 295.81 55.14 283.11" style="fill:#fff;stroke:#000;stroke-miterlimit:10"/></g><polygon points="111.91 276.05 91.02 263.34 55.14 283.11 76.03 295.81 111.91 276.05" style="fill:none;stroke:#000;stroke-miterlimit:10"/></g><g style="isolation:isolate"><polyline points="54.64 307.68 33.61 294.97 33.05 319.42 54.08 332.13 54.64 307.68" style="fill:#20ff00;stroke:#000;stroke-miterlimit:10"/></g><g style="isolation:isolate"><g style="clip-path:url(#aafae67e-bdf3-47d1-9dbf-eb30ef8e5f27)"><polyline points="76.1 295.82 55.06 283.11 33.68 294.97 54.72 307.68 76.1 295.82" style="fill:#fff;stroke:#000;stroke-miterlimit:10"/></g><polygon points="33.68 294.97 55.06 283.11 76.1 295.82 54.72 307.68 33.68 294.97" style="fill:none;stroke:#000;stroke-miterlimit:10"/></g><g style="isolation:isolate"><g style="clip-path:url(#ced6f2b9-7faa-48af-bf14-2de206e17fdd)"><polyline points="76.17 295.82 54.64 307.68 54.15 332.13 75.75 320.27 76.17 295.82" style="fill:#a8a8a8;stroke:#000;stroke-miterlimit:10"/></g><polygon points="54.15 332.13 54.64 307.68 76.17 295.82 75.75 320.27 54.15 332.13" style="fill:none;stroke:#000;stroke-miterlimit:10"/></g><g style="isolation:isolate"><polyline points="221.45 293.78 150.62 334.74 150.62 416.26 221.79 375.3 221.45 293.78" style="fill:#0070a8;stroke:#000;stroke-miterlimit:10"/></g><g style="isolation:isolate"><polyline points="150.62 334.74 79.8 293.79 79.45 375.3 150.62 416.26 150.62 334.74" style="fill:#018ada;stroke:#000;stroke-miterlimit:10"/></g><g style="isolation:isolate"><g style="clip-path:url(#84d2eddd-08f2-4328-8286-bd8a2a470010)"><polyline points="221.45 293.78 150.4 252.82 79.8 293.79 150.62 334.74 221.45 293.78" style="fill:#fff;stroke:#000;stroke-miterlimit:10"/></g><polygon points="79.8 293.79 150.4 252.82 221.45 293.78 150.85 334.74 79.8 293.79" style="fill:none;stroke:#000;stroke-miterlimit:10"/></g><g style="isolation:isolate"><polyline points="221.45 212.68 150.62 253.63 150.62 335.15 221.79 294.19 221.45 212.68" style="fill:#a8a8a8;stroke:#000;stroke-miterlimit:10"/></g><g style="isolation:isolate"><polyline points="150.62 253.63 79.8 212.68 79.45 294.19 150.62 335.15 150.62 253.63" style="fill:#d3d3d3;stroke:#000;stroke-miterlimit:10"/></g><g style="isolation:isolate"><polyline points="221.45 212.68 150.4 171.72 79.8 212.68 150.62 253.63 221.45 212.68" style="fill:#fff;stroke:#000;stroke-miterlimit:10"/></g><g style="isolation:isolate"><g style="clip-path:url(#dbe5313e-d44f-4e78-b6f2-05cba324915a)"><polyline points="218.82 363.56 197.53 375.85 197.53 400.31 218.89 388.02 218.82 363.56" style="fill:#a8a8a8;stroke:#000;stroke-miterlimit:10"/></g><polygon points="197.53 400.31 197.53 375.85 218.82 363.56 218.89 388.02 197.53 400.31" style="fill:none;stroke:#000;stroke-miterlimit:10"/></g><g style="isolation:isolate"><g style="clip-path:url(#5d8be084-a5b8-4cb2-8cbe-91d7994c3c57)"><polyline points="197.53 375.85 176.25 363.57 176.19 388.02 197.53 400.31 197.53 375.85" style="fill:#d3d3d3;stroke:#000;stroke-miterlimit:10"/></g><polygon points="176.19 388.02 176.25 363.57 197.53 375.85 197.53 400.31 176.19 388.02" style="fill:none;stroke:#000;stroke-miterlimit:10"/></g><g style="isolation:isolate"><g style="clip-path:url(#cc32ba36-f228-4e6f-b8af-7e5d4f33b80a)"><polyline points="218.75 363.57 197.46 351.28 176.32 363.57 197.61 375.86 218.75 363.57" style="fill:#fff;stroke:#000;stroke-miterlimit:10"/></g><polygon points="176.32 363.57 197.46 351.28 218.75 363.57 197.61 375.86 176.32 363.57" style="fill:none;stroke:#000;stroke-miterlimit:10"/></g><g style="isolation:isolate"><g style="clip-path:url(#a1367f19-6e67-45d8-9dca-078aa6b5a626)"><polyline points="218.82 322.02 197.53 334.31 197.53 375.07 218.93 362.78 218.82 322.02" style="fill:#a8a8a8;stroke:#000;stroke-miterlimit:10"/></g><polygon points="197.53 375.07 197.53 334.31 218.82 322.02 218.93 362.78 197.53 375.07" style="fill:none;stroke:#000;stroke-miterlimit:10"/></g><g style="isolation:isolate"><g style="clip-path:url(#c4b326af-16b7-47a3-9e7a-10c0b05bb655)"><polyline points="197.53 334.31 176.25 322.02 176.14 362.78 197.53 375.07 197.53 334.31" style="fill:#d3d3d3;stroke:#000;stroke-miterlimit:10"/></g><polygon points="176.14 362.78 176.25 322.02 197.53 334.31 197.53 375.07 176.14 362.78" style="fill:none;stroke:#000;stroke-miterlimit:10"/></g><g style="isolation:isolate"><g style="clip-path:url(#dfbd8951-b3b0-4c36-a7d1-ac71cffcdf67)"><polyline points="218.75 322.02 197.46 309.73 176.32 322.02 197.6 334.31 218.75 322.02" style="fill:#fff;stroke:#000;stroke-miterlimit:10"/></g><polygon points="176.32 322.02 197.46 309.73 218.75 322.02 197.6 334.31 176.32 322.02" style="fill:none;stroke:#000;stroke-miterlimit:10"/></g><g style="isolation:isolate"><path d="M102.46,270.64c-4.57-2.64-8.27-9-8.25-14.29s3.74-7.37,8.31-4.73,8.26,9,8.25,14.29-3.73,7.37-8.3,4.73m25.16,14.52c-4.57-2.64-8.26-9-8.25-14.29s3.74-7.37,8.3-4.73,8.27,9,8.25,14.29-3.74,7.37-8.31,4.73m3.46-32.4L99.19,234.35c-6.79-3.92-12.35-.75-12.38,7.05L86.71,278c0,7.79,5.51,17.38,12.29,21.3l31.88,18.41c6.79,3.92,12.35.74,12.38-7.05l.1-36.64c0-7.8-5.51-17.38-12.29-21.3" style="fill:#ffd997"/><path d="M102.46,268a12.12,12.12,0,0,1-4.21-4.44c-2.32-4-2.3-8.36,0-9.68a4.25,4.25,0,0,1,4.22.43,12.12,12.12,0,0,1,4.21,4.44c2.32,4,2.31,8.35,0,9.68a4.25,4.25,0,0,1-4.22-.43m0-16.36c-4.57-2.64-8.29-.53-8.31,4.73s3.68,11.65,8.25,14.29,8.29.52,8.3-4.73-3.68-11.65-8.25-14.29" style="fill:#fff"/><path d="M102.5,254.28a4.25,4.25,0,0,0-4.22-.43c-2.33,1.33-2.34,5.66,0,9.68a12.12,12.12,0,0,0,4.21,4.44,4.25,4.25,0,0,0,4.22.43c2.34-1.33,2.35-5.67,0-9.68a12.12,12.12,0,0,0-4.21-4.44"/><path d="M127.62,282.5a12.12,12.12,0,0,1-4.21-4.44c-2.32-4-2.31-8.36,0-9.68a4.25,4.25,0,0,1,4.22.43,12.12,12.12,0,0,1,4.21,4.44c2.32,4,2.31,8.35,0,9.68a4.25,4.25,0,0,1-4.22-.43m0-16.36c-4.57-2.64-8.29-.52-8.3,4.73s3.68,11.65,8.25,14.29,8.29.53,8.31-4.73-3.68-11.65-8.25-14.29" style="fill:#fff"/><path d="M127.66,268.8a4.25,4.25,0,0,0-4.22-.43c-2.34,1.33-2.35,5.66,0,9.68a12.12,12.12,0,0,0,4.21,4.44,4.25,4.25,0,0,0,4.22.43c2.34-1.33,2.35-5.67,0-9.68a12.12,12.12,0,0,0-4.21-4.44"/></g><g style="isolation:isolate"><polyline points="188.8 160.81 139.07 189.5 117.9 234.4 146.32 218.02 146.29 209.87 188.81 168.99 188.8 160.81" style="fill:#a8a8a8;stroke:#000;stroke-linejoin:bevel"/></g><g style="isolation:isolate"><polyline points="139.07 189.5 131.94 185.4 110.76 230.31 117.9 234.4 139.07 189.5" style="fill:#d3d3d3;stroke:#000;stroke-miterlimit:10"/></g><polygon points="188.8 160.81 181.69 156.65 131.94 185.4 139.07 189.5 188.8 160.81" style="fill:#fff;stroke:#000;stroke-linejoin:bevel"/></svg>