<svg id="cbfc8769-bdb3-49a5-bdc8-e1b7d8e63aea" data-name="Layer 7" xmlns="http://www.w3.org/2000/svg" xmlns:xlink="http://www.w3.org/1999/xlink" width="299.99" height="462.24" viewBox="0 0 299.99 462.24"><defs><clipPath id="9fbc6d22-2d8a-4551-89b5-b11c54b4661a"><polygon points="175.98 442.5 175.96 434.35 211.36 413.91 211.45 422.02 175.98 442.5" style="fill:none;stroke:#000;stroke-miterlimit:10"/></clipPath><clipPath id="30893b86-f5e7-434f-9fe1-3a1e9a69da47"><polygon points="154.65 430.22 154.68 422.06 175.96 434.35 175.93 442.5 154.65 430.22" style="fill:none;stroke:#000;stroke-miterlimit:10"/></clipPath><clipPath id="59a60528-434e-4939-b780-7c31f964710c"><polygon points="211.36 413.91 190.13 401.67 154.65 422.15 175.8 434.44 211.36 413.91" style="fill:none;stroke:#000;stroke-miterlimit:10"/></clipPath><clipPath id="d019516b-6d9b-42d7-9fe6-0b2aff68f987"><polygon points="176.12 434.13 176.03 401.52 197.31 389.23 197.4 421.84 176.12 434.13" style="fill:none;stroke:#000;stroke-miterlimit:10"/></clipPath><clipPath id="e2318695-cb23-4dc4-81e2-4bf8f0962fc4"><polygon points="154.65 421.84 154.75 389.23 176.03 401.52 175.93 434.13 154.65 421.84" style="fill:none;stroke:#000;stroke-miterlimit:10"/></clipPath><clipPath id="2005a9cf-6270-4043-a161-b9ed7c7ed534"><polygon points="126.18 413.91 126.15 405.76 161.56 385.31 161.64 393.43 126.18 413.91" style="fill:none;stroke:#000;stroke-miterlimit:10"/></clipPath><clipPath id="e2018a2f-1919-45d6-876c-8337056f1a44"><polygon points="104.85 401.62 104.87 393.47 126.15 405.76 126.13 413.91 104.85 401.62" style="fill:none;stroke:#000;stroke-miterlimit:10"/></clipPath><clipPath id="d576946c-177f-413f-814f-3bf6761c3070"><polygon points="161.56 385.31 140.32 373.07 104.85 393.56 126 405.85 161.56 385.31" style="fill:none;stroke:#000;stroke-miterlimit:10"/></clipPath><clipPath id="c5d02d3e-1b40-435c-836b-ee9226cd45c7"><polygon points="126.31 405.86 126.22 373.25 147.5 360.96 147.59 393.57 126.31 405.86" style="fill:none;stroke:#000;stroke-miterlimit:10"/></clipPath><clipPath id="36781b0e-2586-4a55-ba9f-8013cfcb12ea"><polygon points="104.85 393.57 104.94 360.96 126.22 373.25 126.13 405.86 104.85 393.57" style="fill:none;stroke:#000;stroke-miterlimit:10"/></clipPath><clipPath id="10871ee4-17b9-40e1-8740-a5d68252d994"><polygon points="150.49 416.09 150.49 334.57 221.31 293.62 221.66 375.13 150.49 416.09" style="fill:none;stroke:#000;stroke-miterlimit:10"/></clipPath><clipPath id="cb594f90-dbda-4cce-a8f2-3d7772fccab1"><polygon points="79.32 375.13 79.66 293.62 150.49 334.57 150.49 416.09 79.32 375.13" style="fill:none;stroke:#000;stroke-miterlimit:10"/></clipPath><clipPath id="e0d5e005-1ba1-4c88-99d7-58590daf5dd3"><polygon points="79.66 293.62 150.26 252.66 221.31 293.62 150.72 334.57 79.66 293.62" style="fill:none;stroke:#000;stroke-miterlimit:10"/></clipPath><clipPath id="0f3b8c4c-e725-4c50-8f71-761947766513"><polygon points="150.49 334.98 150.49 253.47 221.31 212.51 221.66 294.02 150.49 334.98" style="fill:none;stroke:#000;stroke-miterlimit:10"/></clipPath><clipPath id="8173b938-b29e-4523-93e8-dfe85ff5b280"><polygon points="79.32 294.02 79.66 212.51 150.49 253.47 150.49 334.98 79.32 294.02" style="fill:none;stroke:#000;stroke-miterlimit:10"/></clipPath><clipPath id="112f3146-b8ed-4952-ad44-65c3f6b02527"><polygon points="225.54 317.89 226.1 293.45 247.13 306.16 246.57 330.6 225.54 317.89" style="fill:none;stroke:#000;stroke-miterlimit:10"/></clipPath><clipPath id="72ad3e14-c11c-4a22-970d-e5448d96b9ca"><polygon points="226.17 293.44 247.55 281.58 268.59 294.3 247.2 306.16 226.17 293.44" style="fill:none;stroke:#000;stroke-miterlimit:10"/></clipPath><clipPath id="e99c770e-0684-4c65-ac9f-5bb504f276f2"><polygon points="246.64 330.61 247.13 306.16 268.66 294.3 268.24 318.75 246.64 330.61" style="fill:none;stroke:#000;stroke-miterlimit:10"/></clipPath><clipPath id="2687b104-d96e-4274-bb4b-b8e9f529a20d"><polygon points="210.8 350.31 211.22 325.86 247.1 306.09 246.68 330.54 210.8 350.31" style="fill:none;stroke:#000;stroke-miterlimit:10"/></clipPath><clipPath id="f47945dd-f706-4fec-8302-7f0c796e6145"><polygon points="189.91 337.6 190.47 313.15 211.5 325.87 210.94 350.31 189.91 337.6" style="fill:none;stroke:#000;stroke-miterlimit:10"/></clipPath><clipPath id="2dfe7918-809e-422b-bf16-7c13bb0ed999"><polygon points="247.17 306.1 226.28 293.39 190.4 313.15 211.29 325.86 247.17 306.1" style="fill:none;stroke:#000;stroke-miterlimit:10"/></clipPath></defs><title>player-xb</title><g style="isolation:isolate"><g style="clip-path:url(#9fbc6d22-2d8a-4551-89b5-b11c54b4661a)"><polyline points="211.36 413.91 175.96 434.35 175.98 442.5 211.45 422.02 211.36 413.91" style="fill:#a8a8a8;stroke:#000;stroke-miterlimit:10"/></g><polygon points="175.98 442.5 175.96 434.35 211.36 413.91 211.45 422.02 175.98 442.5" style="fill:none;stroke:#000;stroke-miterlimit:10"/></g><g style="isolation:isolate"><g style="clip-path:url(#30893b86-f5e7-434f-9fe1-3a1e9a69da47)"><polyline points="175.96 434.35 154.68 422.06 154.65 430.22 175.93 442.5 175.96 434.35" style="fill:#d3d3d3;stroke:#000;stroke-miterlimit:10"/></g><polygon points="154.65 430.22 154.68 422.06 175.96 434.35 175.93 442.5 154.65 430.22" style="fill:none;stroke:#000;stroke-miterlimit:10"/></g><g style="isolation:isolate"><g style="clip-path:url(#59a60528-434e-4939-b780-7c31f964710c)"><polyline points="154.65 422.15 190.13 401.67 211.36 413.91 175.8 434.44 154.65 422.15" style="fill:#fff;stroke:#000;stroke-miterlimit:10"/></g><polygon points="211.36 413.91 190.13 401.67 154.65 422.15 175.8 434.44 211.36 413.91" style="fill:none;stroke:#000;stroke-miterlimit:10"/></g><g style="isolation:isolate"><g style="clip-path:url(#d019516b-6d9b-42d7-9fe6-0b2aff68f987)"><polyline points="197.31 389.23 176.03 401.52 176.12 434.13 197.4 421.84 197.31 389.23" style="fill:#a8a8a8;stroke:#000;stroke-miterlimit:10"/></g><polygon points="176.12 434.13 176.03 401.52 197.31 389.23 197.4 421.84 176.12 434.13" style="fill:none;stroke:#000;stroke-miterlimit:10"/></g><g style="isolation:isolate"><g style="clip-path:url(#e2318695-cb23-4dc4-81e2-4bf8f0962fc4)"><polyline points="176.03 401.52 154.75 389.23 154.65 421.84 175.93 434.13 176.03 401.52" style="fill:#d3d3d3;stroke:#000;stroke-miterlimit:10"/></g><polygon points="154.65 421.84 154.75 389.23 176.03 401.52 175.93 434.13 154.65 421.84" style="fill:none;stroke:#000;stroke-miterlimit:10"/></g><g style="isolation:isolate"><g style="clip-path:url(#2005a9cf-6270-4043-a161-b9ed7c7ed534)"><polyline points="161.56 385.31 126.15 405.76 126.18 413.91 161.64 393.43 161.56 385.31" style="fill:#a8a8a8;stroke:#000;stroke-miterlimit:10"/></g><polygon points="126.18 413.91 126.15 405.76 161.56 385.31 161.64 393.43 126.18 413.91" style="fill:none;stroke:#000;stroke-miterlimit:10"/></g><g style="isolation:isolate"><g style="clip-path:url(#e2018a2f-1919-45d6-876c-8337056f1a44)"><polyline points="126.15 405.76 104.87 393.47 104.85 401.62 126.13 413.91 126.15 405.76" style="fill:#d3d3d3;stroke:#000;stroke-miterlimit:10"/></g><polygon points="104.85 401.62 104.87 393.47 126.15 405.76 126.13 413.91 104.85 401.62" style="fill:none;stroke:#000;stroke-miterlimit:10"/></g><g style="isolation:isolate"><g style="clip-path:url(#d576946c-177f-413f-814f-3bf6761c3070)"><polyline points="104.85 393.56 140.32 373.07 161.56 385.31 126 405.85 104.85 393.56" style="fill:#fff;stroke:#000;stroke-miterlimit:10"/></g><polygon points="161.56 385.31 140.32 373.07 104.85 393.56 126 405.85 161.56 385.31" style="fill:none;stroke:#000;stroke-miterlimit:10"/></g><g style="isolation:isolate"><g style="clip-path:url(#c5d02d3e-1b40-435c-836b-ee9226cd45c7)"><polyline points="147.5 360.96 126.22 373.25 126.31 405.86 147.59 393.57 147.5 360.96" style="fill:#a8a8a8;stroke:#000;stroke-miterlimit:10"/></g><polygon points="126.31 405.86 126.22 373.25 147.5 360.96 147.59 393.57 126.31 405.86" style="fill:none;stroke:#000;stroke-miterlimit:10"/></g><g style="isolation:isolate"><g style="clip-path:url(#36781b0e-2586-4a55-ba9f-8013cfcb12ea)"><polyline points="126.22 373.25 104.94 360.96 104.85 393.57 126.13 405.86 126.22 373.25" style="fill:#d3d3d3;stroke:#000;stroke-miterlimit:10"/></g><polygon points="104.85 393.57 104.94 360.96 126.22 373.25 126.13 405.86 104.85 393.57" style="fill:none;stroke:#000;stroke-miterlimit:10"/></g><g style="isolation:isolate"><g style="clip-path:url(#10871ee4-17b9-40e1-8740-a5d68252d994)"><polyline points="221.31 293.62 150.49 334.57 150.49 416.09 221.66 375.13 221.31 293.62" style="fill:#0070a8;stroke:#000;stroke-miterlimit:10"/></g><polygon points="150.49 416.09 150.49 334.57 221.31 293.62 221.66 375.13 150.49 416.09" style="fill:none;stroke:#000;stroke-miterlimit:10"/></g><g style="isolation:isolate"><g style="clip-path:url(#cb594f90-dbda-4cce-a8f2-3d7772fccab1)"><polyline points="150.49 334.57 79.66 293.62 79.32 375.13 150.49 416.09 150.49 334.57" style="fill:#018ada;stroke:#000;stroke-miterlimit:10"/></g><polygon points="79.32 375.13 79.66 293.62 150.49 334.57 150.49 416.09 79.32 375.13" style="fill:none;stroke:#000;stroke-miterlimit:10"/></g><g style="isolation:isolate"><g style="clip-path:url(#e0d5e005-1ba1-4c88-99d7-58590daf5dd3)"><polyline points="221.31 293.62 150.26 252.66 79.66 293.62 150.49 334.57 221.31 293.62" style="fill:#fff;stroke:#000;stroke-miterlimit:10"/></g><polygon points="79.66 293.62 150.26 252.66 221.31 293.62 150.72 334.57 79.66 293.62" style="fill:none;stroke:#000;stroke-miterlimit:10"/></g><g style="isolation:isolate"><g style="clip-path:url(#0f3b8c4c-e725-4c50-8f71-761947766513)"><polyline points="221.31 212.51 150.49 253.47 150.49 334.98 221.66 294.02 221.31 212.51" style="fill:#a8a8a8;stroke:#000;stroke-miterlimit:10"/></g><polygon points="150.49 334.98 150.49 253.47 221.31 212.51 221.66 294.02 150.49 334.98" style="fill:none;stroke:#000;stroke-miterlimit:10"/></g><g style="isolation:isolate"><g style="clip-path:url(#8173b938-b29e-4523-93e8-dfe85ff5b280)"><polyline points="150.49 253.47 79.66 212.51 79.32 294.02 150.49 334.98 150.49 253.47" style="fill:#d3d3d3;stroke:#000;stroke-miterlimit:10"/></g><polygon points="79.32 294.02 79.66 212.51 150.49 253.47 150.49 334.98 79.32 294.02" style="fill:none;stroke:#000;stroke-miterlimit:10"/></g><g style="isolation:isolate"><polyline points="221.31 212.51 150.26 171.55 79.66 212.51 150.49 253.47 221.31 212.51" style="fill:#fff;stroke:#000;stroke-miterlimit:10"/></g><g style="isolation:isolate"><g style="clip-path:url(#112f3146-b8ed-4952-ad44-65c3f6b02527)"><polyline points="247.13 306.16 226.1 293.45 225.54 317.89 246.57 330.6 247.13 306.16" style="fill:#d3d3d3;stroke:#000;stroke-miterlimit:10"/></g><polygon points="225.54 317.89 226.1 293.45 247.13 306.16 246.57 330.6 225.54 317.89" style="fill:none;stroke:#000;stroke-miterlimit:10"/></g><g style="isolation:isolate"><g style="clip-path:url(#72ad3e14-c11c-4a22-970d-e5448d96b9ca)"><polyline points="268.59 294.3 247.55 281.58 226.17 293.44 247.2 306.16 268.59 294.3" style="fill:#fff;stroke:#000;stroke-miterlimit:10"/></g><polygon points="226.17 293.44 247.55 281.58 268.59 294.3 247.2 306.16 226.17 293.44" style="fill:none;stroke:#000;stroke-miterlimit:10"/></g><g style="isolation:isolate"><g style="clip-path:url(#e99c770e-0684-4c65-ac9f-5bb504f276f2)"><polyline points="268.66 294.3 247.13 306.16 246.64 330.61 268.24 318.75 268.66 294.3" style="fill:#a8a8a8;stroke:#000;stroke-miterlimit:10"/></g><polygon points="246.64 330.61 247.13 306.16 268.66 294.3 268.24 318.75 246.64 330.61" style="fill:none;stroke:#000;stroke-miterlimit:10"/></g><g style="isolation:isolate"><g style="clip-path:url(#2687b104-d96e-4274-bb4b-b8e9f529a20d)"><polyline points="247.1 306.09 211.22 325.86 210.8 350.31 246.68 330.54 247.1 306.09" style="fill:#a8a8a8;stroke:#000;stroke-miterlimit:10"/></g><polygon points="210.8 350.31 211.22 325.86 247.1 306.09 246.68 330.54 210.8 350.31" style="fill:none;stroke:#000;stroke-miterlimit:10"/></g><g style="isolation:isolate"><g style="clip-path:url(#f47945dd-f706-4fec-8302-7f0c796e6145)"><polyline points="211.5 325.87 190.47 313.15 189.91 337.6 210.94 350.31 211.5 325.87" style="fill:#d3d3d3;stroke:#000;stroke-miterlimit:10"/></g><polygon points="189.91 337.6 190.47 313.15 211.5 325.87 210.94 350.31 189.91 337.6" style="fill:none;stroke:#000;stroke-miterlimit:10"/></g><g style="isolation:isolate"><g style="clip-path:url(#2dfe7918-809e-422b-bf16-7c13bb0ed999)"><polyline points="190.4 313.15 226.28 293.39 247.17 306.1 211.29 325.86 190.4 313.15" style="fill:#fff;stroke:#000;stroke-miterlimit:10"/></g><polygon points="247.17 306.1 226.28 293.39 190.4 313.15 211.29 325.86 247.17 306.1" style="fill:none;stroke:#000;stroke-miterlimit:10"/></g><g style="isolation:isolate"><polyline points="161.23 203.83 154.14 199.74 154.07 207.89 161.16 211.98 161.23 203.83" style="fill:#d3d3d3;stroke:#000;stroke-miterlimit:10"/></g><g style="isolation:isolate"><polyline points="118.55 203.71 111.46 199.62 111.39 207.77 118.48 211.86 118.55 203.71" style="fill:#d3d3d3;stroke:#000;stroke-miterlimit:10"/></g><g style="isolation:isolate"><polygon points="168.21 175.04 118.55 203.71 118.58 211.86 161.19 203.59 161.21 211.74 189.59 195.36 168.21 175.04" style="fill:#a8a8a8;stroke:#000;stroke-linejoin:bevel"/></g><g style="isolation:isolate"><polygon points="167.99 175.04 160.52 170.8 111.39 199.36 118.87 203.59 167.99 175.04" style="fill:#fff;stroke:#231f20;stroke-linejoin:bevel"/></g></svg>