<svg id="89dc9ed8-fda1-450e-8b23-a47b534b2f4e" data-name="Layer 5" xmlns="http://www.w3.org/2000/svg" xmlns:xlink="http://www.w3.org/1999/xlink" width="299.99" height="462.24" viewBox="0 0 299.99 462.24"><defs><clipPath id="b4e62573-7a8b-4c50-8ea5-f084957188a0"><polygon points="138.55 451.04 138.57 442.88 103.17 422.44 103.08 430.56 138.55 451.04" style="fill:#d3d3d3;stroke:#000;stroke-miterlimit:10"/></clipPath><clipPath id="1716dfbf-f9cf-4793-bbcb-8466a70bbf16"><polygon points="159.88 438.75 159.85 430.6 138.57 442.88 138.6 451.04 159.88 438.75" style="fill:#a8a8a8;stroke:#000;stroke-miterlimit:10"/></clipPath><clipPath id="c2feec5f-884b-4a2f-90e8-e08b59aeed27"><polygon points="103.17 422.44 124.4 410.2 159.88 430.68 138.73 442.97 103.17 422.44" style="fill:none;stroke:#000;stroke-miterlimit:10"/></clipPath><clipPath id="8cbd3ec0-3f2f-41eb-930b-da698506272f"><polygon points="124.36 434.81 124.46 402.2 103.18 389.91 103.08 422.52 124.36 434.81" style="fill:#d3d3d3;stroke:#000;stroke-miterlimit:10"/></clipPath><clipPath id="dbb11b39-8937-4d15-9075-28c865149617"><polygon points="145.83 422.52 145.74 389.91 124.46 402.2 124.55 434.81 145.83 422.52" style="fill:#a8a8a8;stroke:#000;stroke-miterlimit:10"/></clipPath><clipPath id="1db39a86-ea48-4384-9b5b-55a8f43346ec"><polygon points="188.35 422.76 188.38 414.61 152.97 394.17 152.89 402.29 188.35 422.76" style="fill:#d3d3d3;stroke:#000;stroke-miterlimit:10"/></clipPath><clipPath id="00309d73-1588-4e3a-a770-93f6c3014227"><polygon points="209.68 410.48 209.66 402.33 188.38 414.61 188.4 422.76 209.68 410.48" style="fill:#a8a8a8;stroke:#000;stroke-miterlimit:10"/></clipPath><clipPath id="5b8e6901-2dd1-489c-8f94-c3dfc677cb7e"><polygon points="152.97 394.17 174.21 381.93 209.68 402.41 188.53 414.7 152.97 394.17" style="fill:none;stroke:#000;stroke-miterlimit:10"/></clipPath><clipPath id="e24510a4-d86c-4f19-8b3d-3b3b79647292"><polygon points="174.17 406.54 174.26 373.93 152.98 361.64 152.89 394.25 174.17 406.54" style="fill:#d3d3d3;stroke:#000;stroke-miterlimit:10"/></clipPath><clipPath id="3200e907-3d7b-40e5-9927-d3283d2fdfc2"><polygon points="195.63 394.25 195.54 361.64 174.26 373.93 174.35 406.54 195.63 394.25" style="fill:#a8a8a8;stroke:#000;stroke-miterlimit:10"/></clipPath></defs><title>player-yf</title><g style="isolation:isolate"><polygon points="138.55 451.04 138.57 442.88 103.17 422.44 103.08 430.56 138.55 451.04" style="fill:#d3d3d3"/><g style="clip-path:url(#b4e62573-7a8b-4c50-8ea5-f084957188a0)"><polyline points="103.17 422.44 138.57 442.88 138.55 451.04 103.08 430.56 103.17 422.44" style="fill:#d3d3d3;stroke:#000;stroke-miterlimit:10"/></g><polygon points="138.55 451.04 138.57 442.88 103.17 422.44 103.08 430.56 138.55 451.04" style="fill:none;stroke:#000;stroke-miterlimit:10"/></g><g style="isolation:isolate"><polygon points="159.88 438.75 159.85 430.6 138.57 442.88 138.6 451.04 159.88 438.75" style="fill:#a8a8a8"/><g style="clip-path:url(#1716dfbf-f9cf-4793-bbcb-8466a70bbf16)"><polyline points="138.57 442.88 159.85 430.6 159.88 438.75 138.6 451.04 138.57 442.88" style="fill:#a8a8a8;stroke:#000;stroke-miterlimit:10"/></g><polygon points="159.88 438.75 159.85 430.6 138.57 442.88 138.6 451.04 159.88 438.75" style="fill:none;stroke:#000;stroke-miterlimit:10"/></g><g style="isolation:isolate"><g style="clip-path:url(#c2feec5f-884b-4a2f-90e8-e08b59aeed27)"><polyline points="159.88 430.68 124.4 410.2 103.17 422.44 138.73 442.97 159.88 430.68" style="fill:#fff;stroke:#000;stroke-miterlimit:10"/></g><polygon points="103.17 422.44 124.4 410.2 159.88 430.68 138.73 442.97 103.17 422.44" style="fill:none;stroke:#000;stroke-miterlimit:10"/></g><g style="isolation:isolate"><polygon points="124.36 434.81 124.46 402.2 103.18 389.91 103.08 422.52 124.36 434.81" style="fill:#d3d3d3"/><g style="clip-path:url(#8cbd3ec0-3f2f-41eb-930b-da698506272f)"><polyline points="103.18 389.91 124.46 402.2 124.36 434.81 103.08 422.52 103.18 389.91" style="fill:#d3d3d3;stroke:#000;stroke-miterlimit:10"/></g><polygon points="124.36 434.81 124.46 402.2 103.18 389.91 103.08 422.52 124.36 434.81" style="fill:none;stroke:#000;stroke-miterlimit:10"/></g><g style="isolation:isolate"><polygon points="145.83 422.52 145.74 389.91 124.46 402.2 124.55 434.81 145.83 422.52" style="fill:#a8a8a8"/><g style="clip-path:url(#dbb11b39-8937-4d15-9075-28c865149617)"><polyline points="124.46 402.2 145.74 389.91 145.83 422.52 124.55 434.81 124.46 402.2" style="fill:#a8a8a8;stroke:#000;stroke-miterlimit:10"/></g><polygon points="145.83 422.52 145.74 389.91 124.46 402.2 124.55 434.81 145.83 422.52" style="fill:none;stroke:#000;stroke-miterlimit:10"/></g><g style="isolation:isolate"><polygon points="188.35 422.76 188.38 414.61 152.97 394.17 152.89 402.29 188.35 422.76" style="fill:#d3d3d3"/><g style="clip-path:url(#1db39a86-ea48-4384-9b5b-55a8f43346ec)"><polyline points="152.97 394.17 188.38 414.61 188.35 422.76 152.89 402.29 152.97 394.17" style="fill:#d3d3d3;stroke:#000;stroke-miterlimit:10"/></g><polygon points="188.35 422.76 188.38 414.61 152.97 394.17 152.89 402.29 188.35 422.76" style="fill:none;stroke:#000;stroke-miterlimit:10"/></g><g style="isolation:isolate"><polygon points="209.68 410.48 209.66 402.33 188.38 414.61 188.4 422.76 209.68 410.48" style="fill:#a8a8a8"/><g style="clip-path:url(#00309d73-1588-4e3a-a770-93f6c3014227)"><polyline points="188.38 414.61 209.66 402.33 209.68 410.48 188.4 422.76 188.38 414.61" style="fill:#a8a8a8;stroke:#000;stroke-miterlimit:10"/></g><polygon points="209.68 410.48 209.66 402.33 188.38 414.61 188.4 422.76 209.68 410.48" style="fill:none;stroke:#000;stroke-miterlimit:10"/></g><g style="isolation:isolate"><g style="clip-path:url(#5b8e6901-2dd1-489c-8f94-c3dfc677cb7e)"><polyline points="209.68 402.41 174.21 381.93 152.97 394.17 188.53 414.7 209.68 402.41" style="fill:#fff;stroke:#000;stroke-miterlimit:10"/></g><polygon points="152.97 394.17 174.21 381.93 209.68 402.41 188.53 414.7 152.97 394.17" style="fill:none;stroke:#000;stroke-miterlimit:10"/></g><g style="isolation:isolate"><polygon points="174.17 406.54 174.26 373.93 152.98 361.64 152.89 394.25 174.17 406.54" style="fill:#d3d3d3"/><g style="clip-path:url(#e24510a4-d86c-4f19-8b3d-3b3b79647292)"><polyline points="152.98 361.64 174.26 373.93 174.17 406.54 152.89 394.25 152.98 361.64" style="fill:#d3d3d3;stroke:#000;stroke-miterlimit:10"/></g><polygon points="174.17 406.54 174.26 373.93 152.98 361.64 152.89 394.25 174.17 406.54" style="fill:none;stroke:#000;stroke-miterlimit:10"/></g><g style="isolation:isolate"><polygon points="195.63 394.25 195.54 361.64 174.26 373.93 174.35 406.54 195.63 394.25" style="fill:#a8a8a8"/><g style="clip-path:url(#3200e907-3d7b-40e5-9927-d3283d2fdfc2)"><polyline points="174.26 373.93 195.54 361.64 195.63 394.25 174.35 406.54 174.26 373.93" style="fill:#a8a8a8;stroke:#000;stroke-miterlimit:10"/></g><polygon points="195.63 394.25 195.54 361.64 174.26 373.93 174.35 406.54 195.63 394.25" style="fill:none;stroke:#000;stroke-miterlimit:10"/></g><polyline points="79.17 294.29 150 335.25 150 416.77 78.82 375.81 79.17 294.29" style="fill:#018ada;stroke:#000;stroke-miterlimit:10"/><polyline points="150 335.25 220.82 294.3 221.17 375.81 150 416.77 150 335.25" style="fill:#0070a8;stroke:#000;stroke-miterlimit:10"/><g style="isolation:isolate"><polyline points="79.17 294.29 150.22 253.34 220.82 294.3 150 335.25 79.17 294.29" style="fill:#fff;stroke:#000;stroke-miterlimit:10"/></g><g style="isolation:isolate"><polyline points="79.17 213.19 149.99 254.15 149.99 335.66 78.82 294.7 79.17 213.19" style="fill:#d3d3d3;stroke:#000;stroke-miterlimit:10"/></g><g style="isolation:isolate"><polyline points="149.99 254.15 220.82 213.19 221.17 294.7 149.99 335.66 149.99 254.15" style="fill:#a8a8a8;stroke:#000;stroke-miterlimit:10"/></g><polyline points="79.17 213.19 150.22 172.23 220.82 213.19 149.99 254.15 79.17 213.19" style="fill:#fff;stroke:#000;stroke-miterlimit:10"/><polyline points="99.22 333.48 135.09 353.25 135.51 377.69 99.64 357.93 99.22 333.48" style="fill:#d3d3d3;stroke:#000;stroke-miterlimit:10"/><g style="isolation:isolate"><polyline points="134.82 353.25 155.85 340.54 156.41 364.99 135.38 377.7 134.82 353.25" style="fill:#d3d3d3;stroke:#000;stroke-miterlimit:10"/></g><g style="isolation:isolate"><polyline points="155.91 340.54 120.04 320.77 99.15 333.48 135.02 353.25 155.91 340.54" style="fill:#fff;stroke:#000;stroke-miterlimit:10"/></g><g style="isolation:isolate"><polyline points="156.41 365.11 177.44 352.4 178 376.85 156.97 389.56 156.41 365.11" style="fill:#20ff00;stroke:#000;stroke-miterlimit:10"/></g><g style="isolation:isolate"><polyline points="134.96 353.25 155.99 340.54 177.38 352.4 156.34 365.11 134.96 353.25" style="fill:#fff;stroke:#000;stroke-miterlimit:10"/></g><g style="isolation:isolate"><polyline points="134.88 353.25 156.41 365.11 156.9 389.56 135.3 377.7 134.88 353.25" style="fill:#d3d3d3;stroke:#000;stroke-miterlimit:10"/></g><g style="isolation:isolate"><path d="M198.16,269c-4.57,2.64-8.29.52-8.3-4.73s3.68-11.65,8.25-14.29,8.29-.53,8.31,4.73-3.68,11.65-8.25,14.29M173,283.54c-4.57,2.64-8.29.53-8.31-4.73s3.68-11.65,8.25-14.29,8.29-.52,8.3,4.73-3.68,11.65-8.25,14.29m-3.46-32.4c-6.79,3.92-12.32,13.5-12.29,21.3l.1,36.64c0,7.79,5.59,11,12.38,7.05l31.88-18.41c6.79-3.92,12.32-13.5,12.29-21.3l-.1-36.64c0-7.8-5.59-11-12.38-7.05l-31.88,18.41" style="fill:#ffd997"/><path d="M198.16,266.35a4.25,4.25,0,0,1-4.22.43c-2.34-1.33-2.35-5.67,0-9.68a12.12,12.12,0,0,1,4.21-4.44,4.25,4.25,0,0,1,4.22-.43c2.33,1.33,2.34,5.66,0,9.68a12.12,12.12,0,0,1-4.21,4.44m0-16.36c-4.57,2.64-8.26,9-8.25,14.29s3.73,7.37,8.3,4.73,8.27-9,8.25-14.29-3.74-7.37-8.31-4.73" style="fill:#fff"/><path d="M198.12,252.65a4.25,4.25,0,0,1,4.22-.43c2.33,1.33,2.34,5.66,0,9.68a12.12,12.12,0,0,1-4.21,4.44,4.25,4.25,0,0,1-4.22.43c-2.34-1.33-2.35-5.67,0-9.68a12.12,12.12,0,0,1,4.21-4.44"/><path d="M173,280.88a4.25,4.25,0,0,1-4.22.43c-2.34-1.33-2.35-5.67,0-9.68a12.12,12.12,0,0,1,4.21-4.44,4.25,4.25,0,0,1,4.22-.43c2.34,1.33,2.35,5.66,0,9.68a12.12,12.12,0,0,1-4.21,4.44m0-16.36c-4.57,2.64-8.27,9-8.25,14.29s3.74,7.37,8.31,4.73,8.26-9,8.25-14.29-3.74-7.37-8.3-4.73" style="fill:#fff"/><path d="M173,267.18a4.25,4.25,0,0,1,4.22-.43c2.34,1.33,2.35,5.66,0,9.68a12.12,12.12,0,0,1-4.21,4.44,4.25,4.25,0,0,1-4.22.43c-2.34-1.33-2.35-5.67,0-9.68a12.12,12.12,0,0,1,4.21-4.44"/></g><g style="isolation:isolate"><polyline points="110.98 161.32 160.71 190.01 181.88 234.91 153.46 218.53 153.49 210.38 110.97 169.5 110.98 161.32" style="fill:#d3d3d3;stroke:#000;stroke-miterlimit:10"/></g><g style="isolation:isolate"><polyline points="160.71 190.01 167.84 185.91 189.02 230.82 181.88 234.91 160.71 190.01" style="fill:#a8a8a8;stroke:#000;stroke-linejoin:bevel"/></g><polygon points="110.98 161.32 118.09 157.16 167.84 185.91 160.71 190.01 110.98 161.32" style="fill:#fff;stroke:#000;stroke-linejoin:bevel"/></svg>