<svg id="2ff457d8-b766-4171-b90d-a3ac76006444" data-name="Layer 8" xmlns="http://www.w3.org/2000/svg" xmlns:xlink="http://www.w3.org/1999/xlink" width="299.99" height="462.24" viewBox="0 0 299.99 462.24"><defs><clipPath id="09c661a3-e4a2-4f7b-b5d5-1507619511e2"><polygon points="125 442.01 125.02 433.86 89.61 413.41 89.53 421.53 125 442.01" style="fill:#d3d3d3;stroke:#000;stroke-miterlimit:10"/></clipPath><clipPath id="4716eaf3-4e84-47b3-a1b0-6415cf729c3d"><polygon points="146.32 429.72 146.3 421.57 125.02 433.86 125.04 442.01 146.32 429.72" style="fill:#a8a8a8;stroke:#000;stroke-miterlimit:10"/></clipPath><clipPath id="d0fa6b00-4b8f-4797-96d8-ecf7620f460d"><polygon points="89.61 413.41 110.85 401.18 146.32 421.65 125.17 433.94 89.61 413.41" style="fill:none;stroke:#000;stroke-miterlimit:10"/></clipPath><clipPath id="a1cd9729-8ead-48f7-9157-ee0a843fb9cb"><polygon points="124.86 433.63 124.95 401.02 103.67 388.74 103.58 421.35 124.86 433.63" style="fill:#d3d3d3;stroke:#000;stroke-miterlimit:10"/></clipPath><clipPath id="a02e21ee-923f-4a4a-a867-952e46880094"><polygon points="146.32 421.35 146.23 388.74 124.95 401.02 125.04 433.63 146.32 421.35" style="fill:#a8a8a8;stroke:#000;stroke-miterlimit:10"/></clipPath><clipPath id="1050d5a5-dd08-4a54-bbc8-01c707fc5e04"><polygon points="174.8 413.41 174.82 405.26 139.42 384.82 139.33 392.94 174.8 413.41" style="fill:#d3d3d3;stroke:#000;stroke-miterlimit:10"/></clipPath><clipPath id="d7cd8dd5-289d-4704-8939-0665e5220306"><polygon points="196.13 401.13 196.1 392.98 174.82 405.26 174.85 413.41 196.13 401.13" style="fill:#a8a8a8;stroke:#000;stroke-miterlimit:10"/></clipPath><clipPath id="44d42a7c-e497-4f77-9de7-bea9c701f47e"><polygon points="139.42 384.82 160.65 372.58 196.13 393.06 174.98 405.35 139.42 384.82" style="fill:none;stroke:#000;stroke-miterlimit:10"/></clipPath><clipPath id="644c311e-6a93-495e-9de8-9755dc3a9a91"><polygon points="174.66 405.36 174.75 372.75 153.47 360.47 153.38 393.08 174.66 405.36" style="fill:#d3d3d3;stroke:#000;stroke-miterlimit:10"/></clipPath><clipPath id="56d8ce3b-a655-4457-8667-d4aeb426fa8f"><polygon points="196.13 393.08 196.03 360.47 174.75 372.75 174.85 405.36 196.13 393.08" style="fill:#a8a8a8;stroke:#000;stroke-miterlimit:10"/></clipPath><clipPath id="fefe3830-0136-495e-b93f-456c61d25d4a"><polygon points="150.49 415.6 150.49 334.08 79.66 293.12 79.32 374.64 150.49 415.6" style="fill:#d3d3d3;stroke:#000;stroke-miterlimit:10"/></clipPath><clipPath id="8c6bb895-ba34-4cb2-9711-c6fb79d54ebf"><polygon points="221.66 374.64 221.31 293.12 150.49 334.08 150.49 415.6 221.66 374.64" style="fill:#0070a8;stroke:#000;stroke-miterlimit:10"/></clipPath><clipPath id="80422cc7-bc18-4611-8b10-ca1789f13c21"><polygon points="221.31 293.12 150.72 252.16 79.66 293.12 150.26 334.08 221.31 293.12" style="fill:none;stroke:#000;stroke-miterlimit:10"/></clipPath><clipPath id="ca511e57-815f-424d-bb19-099386df4a20"><polygon points="150.49 334.49 150.49 252.97 79.66 212.01 79.32 293.53 150.49 334.49" style="fill:#d3d3d3;stroke:#000;stroke-miterlimit:10"/></clipPath><clipPath id="103d7a08-9328-4b7f-a00a-941a1f8af645"><polygon points="221.66 293.53 221.31 212.02 150.49 252.97 150.49 334.49 221.66 293.53" style="fill:#a8a8a8;stroke:#000;stroke-miterlimit:10"/></clipPath><clipPath id="ae1f7973-1855-4223-8377-89a85178688e"><polygon points="221.31 212.02 150.72 171.06 79.66 212.01 150.26 252.97 221.31 212.02" style="fill:none;stroke:#000;stroke-miterlimit:10"/></clipPath><clipPath id="ef931297-ba3e-42c8-9b54-4f4d8f9f49a7"><polygon points="107.28 400.08 107.28 375.63 128.56 363.34 128.63 387.79 107.28 400.08" style="fill:none;stroke:#000;stroke-miterlimit:10"/></clipPath><clipPath id="fccb95b7-8db2-4d69-96fd-cf8e9be4b7e2"><polygon points="85.93 387.79 86 363.34 107.28 375.63 107.28 400.08 85.93 387.79" style="fill:none;stroke:#000;stroke-miterlimit:10"/></clipPath><clipPath id="b753acb8-2d24-4610-9f1a-76d676859d99"><polygon points="86.06 363.34 107.2 351.05 128.49 363.34 107.35 375.63 86.06 363.34" style="fill:none;stroke:#000;stroke-miterlimit:10"/></clipPath><clipPath id="7d9d6200-cd86-4d77-8b2f-8fd9be0b7c60"><polygon points="107.27 374.84 107.27 334.08 128.56 321.79 128.67 362.55 107.27 374.84" style="fill:none;stroke:#000;stroke-miterlimit:10"/></clipPath><clipPath id="53a2c54c-b43f-4b19-b898-d071f20c64a6"><polygon points="85.88 362.56 85.99 321.79 107.27 334.08 107.27 374.84 85.88 362.56" style="fill:none;stroke:#000;stroke-miterlimit:10"/></clipPath><clipPath id="46a238fd-fdb0-42ba-aa2e-e186b7b5b11c"><polygon points="86.06 321.79 107.2 309.5 128.49 321.8 107.34 334.08 86.06 321.79" style="fill:none;stroke:#000;stroke-miterlimit:10"/></clipPath></defs><title>player-yb</title><g style="isolation:isolate"><polygon points="125 442.01 125.02 433.86 89.61 413.41 89.53 421.53 125 442.01" style="fill:#d3d3d3"/><g style="clip-path:url(#09c661a3-e4a2-4f7b-b5d5-1507619511e2)"><polyline points="89.61 413.41 125.02 433.86 125 442.01 89.53 421.53 89.61 413.41" style="fill:#d3d3d3;stroke:#000;stroke-miterlimit:10"/></g><polygon points="125 442.01 125.02 433.86 89.61 413.41 89.53 421.53 125 442.01" style="fill:none;stroke:#000;stroke-miterlimit:10"/></g><g style="isolation:isolate"><polygon points="146.32 429.72 146.3 421.57 125.02 433.86 125.04 442.01 146.32 429.72" style="fill:#a8a8a8"/><g style="clip-path:url(#4716eaf3-4e84-47b3-a1b0-6415cf729c3d)"><polyline points="125.02 433.86 146.3 421.57 146.32 429.72 125.04 442.01 125.02 433.86" style="fill:#a8a8a8;stroke:#000;stroke-miterlimit:10"/></g><polygon points="146.32 429.72 146.3 421.57 125.02 433.86 125.04 442.01 146.32 429.72" style="fill:none;stroke:#000;stroke-miterlimit:10"/></g><g style="isolation:isolate"><g style="clip-path:url(#d0fa6b00-4b8f-4797-96d8-ecf7620f460d)"><polyline points="146.32 421.65 110.85 401.18 89.61 413.41 125.17 433.94 146.32 421.65" style="fill:#fff;stroke:#000;stroke-miterlimit:10"/></g><polygon points="89.61 413.41 110.85 401.18 146.32 421.65 125.17 433.94 89.61 413.41" style="fill:none;stroke:#000;stroke-miterlimit:10"/></g><g style="isolation:isolate"><polygon points="124.86 433.63 124.95 401.02 103.67 388.74 103.58 421.35 124.86 433.63" style="fill:#d3d3d3"/><g style="clip-path:url(#a1cd9729-8ead-48f7-9157-ee0a843fb9cb)"><polyline points="103.67 388.74 124.95 401.02 124.86 433.63 103.58 421.35 103.67 388.74" style="fill:#d3d3d3;stroke:#000;stroke-miterlimit:10"/></g><polygon points="124.86 433.63 124.95 401.02 103.67 388.74 103.58 421.35 124.86 433.63" style="fill:none;stroke:#000;stroke-miterlimit:10"/></g><g style="isolation:isolate"><polygon points="146.32 421.35 146.23 388.74 124.95 401.02 125.04 433.63 146.32 421.35" style="fill:#a8a8a8"/><g style="clip-path:url(#a02e21ee-923f-4a4a-a867-952e46880094)"><polyline points="124.95 401.02 146.23 388.74 146.32 421.35 125.04 433.63 124.95 401.02" style="fill:#a8a8a8;stroke:#000;stroke-miterlimit:10"/></g><polygon points="146.32 421.35 146.23 388.74 124.95 401.02 125.04 433.63 146.32 421.35" style="fill:none;stroke:#000;stroke-miterlimit:10"/></g><g style="isolation:isolate"><polygon points="174.8 413.41 174.82 405.26 139.42 384.82 139.33 392.94 174.8 413.41" style="fill:#d3d3d3"/><g style="clip-path:url(#1050d5a5-dd08-4a54-bbc8-01c707fc5e04)"><polyline points="139.42 384.82 174.82 405.26 174.8 413.41 139.33 392.94 139.42 384.82" style="fill:#d3d3d3;stroke:#000;stroke-miterlimit:10"/></g><polygon points="174.8 413.41 174.82 405.26 139.42 384.82 139.33 392.94 174.8 413.41" style="fill:none;stroke:#000;stroke-miterlimit:10"/></g><g style="isolation:isolate"><polygon points="196.13 401.13 196.1 392.98 174.82 405.26 174.85 413.41 196.13 401.13" style="fill:#a8a8a8"/><g style="clip-path:url(#d7cd8dd5-289d-4704-8939-0665e5220306)"><polyline points="174.82 405.26 196.1 392.98 196.13 401.13 174.85 413.41 174.82 405.26" style="fill:#a8a8a8;stroke:#000;stroke-miterlimit:10"/></g><polygon points="196.13 401.13 196.1 392.98 174.82 405.26 174.85 413.41 196.13 401.13" style="fill:none;stroke:#000;stroke-miterlimit:10"/></g><g style="isolation:isolate"><g style="clip-path:url(#44d42a7c-e497-4f77-9de7-bea9c701f47e)"><polyline points="196.13 393.06 160.65 372.58 139.42 384.82 174.98 405.35 196.13 393.06" style="fill:#fff;stroke:#000;stroke-miterlimit:10"/></g><polygon points="139.42 384.82 160.65 372.58 196.13 393.06 174.98 405.35 139.42 384.82" style="fill:none;stroke:#000;stroke-miterlimit:10"/></g><g style="isolation:isolate"><polygon points="174.66 405.36 174.75 372.75 153.47 360.47 153.38 393.08 174.66 405.36" style="fill:#d3d3d3"/><g style="clip-path:url(#644c311e-6a93-495e-9de8-9755dc3a9a91)"><polyline points="153.47 360.47 174.75 372.75 174.66 405.36 153.38 393.08 153.47 360.47" style="fill:#d3d3d3;stroke:#000;stroke-miterlimit:10"/></g><polygon points="174.66 405.36 174.75 372.75 153.47 360.47 153.38 393.08 174.66 405.36" style="fill:none;stroke:#000;stroke-miterlimit:10"/></g><g style="isolation:isolate"><polygon points="196.13 393.08 196.03 360.47 174.75 372.75 174.85 405.36 196.13 393.08" style="fill:#a8a8a8"/><g style="clip-path:url(#56d8ce3b-a655-4457-8667-d4aeb426fa8f)"><polyline points="174.75 372.75 196.03 360.47 196.13 393.08 174.85 405.36 174.75 372.75" style="fill:#a8a8a8;stroke:#000;stroke-miterlimit:10"/></g><polygon points="196.13 393.08 196.03 360.47 174.75 372.75 174.85 405.36 196.13 393.08" style="fill:none;stroke:#000;stroke-miterlimit:10"/></g><g style="isolation:isolate"><polygon points="150.49 415.6 150.49 334.08 79.66 293.12 79.32 374.64 150.49 415.6" style="fill:#d3d3d3"/><g style="clip-path:url(#fefe3830-0136-495e-b93f-456c61d25d4a)"><polyline points="79.66 293.12 150.49 334.08 150.49 415.6 79.32 374.64 79.66 293.12" style="fill:#018ada;stroke:#000;stroke-miterlimit:10"/></g><polygon points="150.49 415.6 150.49 334.08 79.66 293.12 79.32 374.64 150.49 415.6" style="fill:none;stroke:#000;stroke-miterlimit:10"/></g><g style="isolation:isolate"><polygon points="221.66 374.64 221.31 293.12 150.49 334.08 150.49 415.6 221.66 374.64" style="fill:#0070a8"/><g style="clip-path:url(#8c6bb895-ba34-4cb2-9711-c6fb79d54ebf)"><polyline points="150.49 334.08 221.31 293.12 221.66 374.64 150.49 415.6 150.49 334.08" style="fill:#0070a8;stroke:#000;stroke-miterlimit:10"/></g><polygon points="221.66 374.64 221.31 293.12 150.49 334.08 150.49 415.6 221.66 374.64" style="fill:none;stroke:#000;stroke-miterlimit:10"/></g><g style="isolation:isolate"><g style="clip-path:url(#80422cc7-bc18-4611-8b10-ca1789f13c21)"><polyline points="79.66 293.12 150.72 252.16 221.31 293.12 150.49 334.08 79.66 293.12" style="fill:#fff;stroke:#000;stroke-miterlimit:10"/></g><polygon points="221.31 293.12 150.72 252.16 79.66 293.12 150.26 334.08 221.31 293.12" style="fill:none;stroke:#000;stroke-miterlimit:10"/></g><g style="isolation:isolate"><polygon points="150.49 334.49 150.49 252.97 79.66 212.01 79.32 293.53 150.49 334.49" style="fill:#d3d3d3"/><g style="clip-path:url(#ca511e57-815f-424d-bb19-099386df4a20)"><polyline points="79.66 212.01 150.49 252.97 150.49 334.49 79.32 293.53 79.66 212.01" style="fill:#d3d3d3;stroke:#000;stroke-miterlimit:10"/></g><polygon points="150.49 334.49 150.49 252.97 79.66 212.01 79.32 293.53 150.49 334.49" style="fill:none;stroke:#000;stroke-miterlimit:10"/></g><g style="isolation:isolate"><polygon points="221.66 293.53 221.31 212.02 150.49 252.97 150.49 334.49 221.66 293.53" style="fill:#a8a8a8"/><g style="clip-path:url(#103d7a08-9328-4b7f-a00a-941a1f8af645)"><polyline points="150.49 252.97 221.31 212.02 221.66 293.53 150.49 334.49 150.49 252.97" style="fill:#a8a8a8;stroke:#000;stroke-miterlimit:10"/></g><polygon points="221.66 293.53 221.31 212.02 150.49 252.97 150.49 334.49 221.66 293.53" style="fill:none;stroke:#000;stroke-miterlimit:10"/></g><g style="isolation:isolate"><g style="clip-path:url(#ae1f7973-1855-4223-8377-89a85178688e)"><polyline points="79.66 212.01 150.72 171.06 221.31 212.02 150.49 252.97 79.66 212.01" style="fill:#fff;stroke:#000;stroke-miterlimit:10"/></g><polygon points="221.31 212.02 150.72 171.06 79.66 212.01 150.26 252.97 221.31 212.02" style="fill:none;stroke:#000;stroke-miterlimit:10"/></g><g style="isolation:isolate"><g style="clip-path:url(#ef931297-ba3e-42c8-9b54-4f4d8f9f49a7)"><polyline points="128.56 363.34 107.28 375.63 107.28 400.08 128.63 387.79 128.56 363.34" style="fill:#a8a8a8;stroke:#000;stroke-miterlimit:10"/></g><polygon points="107.28 400.08 107.28 375.63 128.56 363.34 128.63 387.79 107.28 400.08" style="fill:none;stroke:#000;stroke-miterlimit:10"/></g><g style="isolation:isolate"><g style="clip-path:url(#fccb95b7-8db2-4d69-96fd-cf8e9be4b7e2)"><polyline points="107.28 375.63 86 363.34 85.93 387.79 107.28 400.08 107.28 375.63" style="fill:#d3d3d3;stroke:#000;stroke-miterlimit:10"/></g><polygon points="85.93 387.79 86 363.34 107.28 375.63 107.28 400.08 85.93 387.79" style="fill:none;stroke:#000;stroke-miterlimit:10"/></g><g style="isolation:isolate"><g style="clip-path:url(#b753acb8-2d24-4610-9f1a-76d676859d99)"><polyline points="128.49 363.34 107.2 351.05 86.06 363.34 107.35 375.63 128.49 363.34" style="fill:#fff;stroke:#000;stroke-miterlimit:10"/></g><polygon points="86.06 363.34 107.2 351.05 128.49 363.34 107.35 375.63 86.06 363.34" style="fill:none;stroke:#000;stroke-miterlimit:10"/></g><g style="isolation:isolate"><g style="clip-path:url(#7d9d6200-cd86-4d77-8b2f-8fd9be0b7c60)"><polyline points="128.56 321.79 107.27 334.08 107.27 374.84 128.67 362.55 128.56 321.79" style="fill:#a8a8a8;stroke:#000;stroke-miterlimit:10"/></g><polygon points="107.27 374.84 107.27 334.08 128.56 321.79 128.67 362.55 107.27 374.84" style="fill:none;stroke:#000;stroke-miterlimit:10"/></g><g style="isolation:isolate"><g style="clip-path:url(#53a2c54c-b43f-4b19-b898-d071f20c64a6)"><polyline points="107.27 334.08 85.99 321.79 85.88 362.56 107.27 374.84 107.27 334.08" style="fill:#d3d3d3;stroke:#000;stroke-miterlimit:10"/></g><polygon points="85.88 362.56 85.99 321.79 107.27 334.08 107.27 374.84 85.88 362.56" style="fill:none;stroke:#000;stroke-miterlimit:10"/></g><g style="isolation:isolate"><g style="clip-path:url(#46a238fd-fdb0-42ba-aa2e-e186b7b5b11c)"><polyline points="128.49 321.8 107.2 309.5 86.06 321.79 107.34 334.08 128.49 321.8" style="fill:#fff;stroke:#000;stroke-miterlimit:10"/></g><polygon points="86.06 321.79 107.2 309.5 128.49 321.8 107.34 334.08 86.06 321.79" style="fill:none;stroke:#000;stroke-miterlimit:10"/></g><g style="isolation:isolate"><polyline points="139.06 203.34 146.15 199.24 146.22 207.39 139.13 211.49 139.06 203.34" style="fill:#a8a8a8;stroke:#000;stroke-linejoin:bevel"/></g><g style="isolation:isolate"><polyline points="181.74 203.22 188.83 199.12 188.9 207.27 181.81 211.37 181.74 203.22" style="fill:#a8a8a8;stroke:#000;stroke-linejoin:bevel"/></g><g style="isolation:isolate"><polygon points="132.07 174.55 181.74 203.22 181.71 211.37 139.1 203.09 139.08 211.24 110.7 194.86 132.07 174.55" style="fill:#d3d3d3;stroke:#000;stroke-miterlimit:10"/></g><g style="isolation:isolate"><polygon points="132.29 174.55 139.77 170.31 188.9 198.86 181.42 203.1 132.29 174.55" style="fill:#fff;stroke:#231f20;stroke-linejoin:bevel"/></g></svg>