<svg id="ac06ce74-0a39-4c63-9aa6-50e01df0ebee" data-name="Layer 1" xmlns="http://www.w3.org/2000/svg" xmlns:xlink="http://www.w3.org/1999/xlink" width="422.84" height="264.93" viewBox="0 0 422.84 264.93"><defs><clipPath id="72fcf3f1-ba2d-4b3a-b480-28734c099022"><polygon points="34.15 122.46 210.84 19.78 388.69 122.46 212 225.14 34.15 122.46" style="fill:none"/></clipPath></defs><title>tileoverlay-2</title><g style="opacity:0.3"><g style="isolation:isolate"><g style="clip-path:url(#72fcf3f1-ba2d-4b3a-b480-28734c099022)"><path d="M143.37,162c-37.83-21.84-38-57.25-.45-79.09s98.71-21.84,136.54,0,38,57.25.45,79.09-98.72,21.84-136.54,0M299.77,71.12c-49.11-28.35-128.48-28.35-177.27,0S74,145.45,123.08,173.8s128.48,28.35,177.27,0,48.53-74.33-.58-102.68" style="fill:#231f20"/><polyline points="222.6 87.46 197.11 72.75 125.55 114.33 151.04 129.05 222.6 87.46" style="fill:#231f20"/><polyline points="297.3 130.59 271.8 115.87 200.24 157.46 225.74 172.18 297.3 130.59" style="fill:#231f20"/><polyline points="259.65 108.86 234.16 94.14 162.6 135.72 188.09 150.44 259.65 108.86" style="fill:#231f20"/></g></g></g></svg>