<svg id="ceb4c34f-79d5-4092-becc-85b58ff76099" data-name="Layer 1" xmlns="http://www.w3.org/2000/svg" xmlns:xlink="http://www.w3.org/1999/xlink" width="422.84" height="264.93" viewBox="0 0 422.84 264.93"><defs><clipPath id="18db48c4-d3f0-4b57-8ad4-dbf8e89fc607"><polygon points="49.16 122.46 210.89 28.47 373.69 122.46 211.95 216.45 49.16 122.46" style="fill:none"/></clipPath></defs><title>tileoverlay-1</title><g style="opacity:0.3"><g style="isolation:isolate"><g style="clip-path:url(#18db48c4-d3f0-4b57-8ad4-dbf8e89fc607)"><path d="M102.25,136.57C96,133,92.12,128,92.09,122.46c-.06-11,15.31-20,34.33-19.95,9.51,0,18.14,2.23,24.39,5.84S160.94,117,161,122.46c.07,11-15.3,19.95-34.33,19.95-9.51,0-18.13-2.23-24.38-5.84m85.17,49.17c-6.25-3.61-10.14-8.6-10.17-14.11-.06-11,15.31-20,34.33-19.95,9.51,0,18.14,2.23,24.39,5.84s10.13,8.6,10.16,14.11c.07,11-15.3,19.95-34.33,19.95-9.51,0-18.13-2.23-24.38-5.84m-.55-98.35c-6.25-3.61-10.14-8.6-10.17-14.11-.06-11,15.3-19.95,34.33-19.95,9.51,0,18.14,2.23,24.39,5.84s10.13,8.6,10.16,14.11c.06,11-15.3,19.95-34.33,19.95-9.51,0-18.13-2.23-24.38-5.84M272,136.57c-6.25-3.61-10.14-8.6-10.17-14.11-.06-11,15.3-19.95,34.33-19.95,9.51,0,18.14,2.23,24.39,5.84s10.13,8.6,10.16,14.11c.06,11-15.3,19.95-34.33,19.95-9.51,0-18.13-2.23-24.38-5.84m62.83-36.52c-9.93-5.73-23.63-9.28-38.74-9.28-25.77,0-47.3,10.32-53,24.21H224.28l-.06-10.92c24-3.36,41.71-15.87,41.63-30.79,0-8.75-6.22-16.67-16.15-22.41S226.07,41.6,211,41.6c-30.22,0-54.63,14.19-54.53,31.69,0,8.75,6.22,16.67,16.15,22.4a72.15,72.15,0,0,0,25.84,8.4l.06,10.91H179.65c-2.43-5.75-7.57-10.89-14.58-14.94-9.93-5.73-23.62-9.28-38.72-9.28-30.22,0-54.63,14.19-54.53,31.69,0,8.75,6.22,16.67,16.15,22.41s23.63,9.28,38.74,9.28c25.77,0,47.3-10.32,53-24.21h18.84l.05,10.91c-24,3.36-41.71,15.87-41.63,30.79,0,8.75,6.22,16.67,16.15,22.41s23.63,9.28,38.74,9.28c30.22,0,54.63-14.19,54.53-31.69,0-8.75-6.21-16.66-16.14-22.39a72.14,72.14,0,0,0-25.84-8.4l-.06-10.92H243.2c2.43,5.75,7.57,10.89,14.58,14.94,9.93,5.73,23.61,9.28,38.71,9.28,30.22,0,54.63-14.19,54.53-31.69,0-8.75-6.22-16.67-16.15-22.41" style="fill:#231f20"/></g></g></g></svg>