<svg id="bf52f147-f91a-468e-ad0a-4ca73891831f" data-name="Layer 5 copy" xmlns="http://www.w3.org/2000/svg" width="422.84" height="514.93" viewBox="0 0 422.84 514.93"><title>walloverlay-yf-1</title><polygon points="317.21 223.64 319.12 222.44 305.22 214.36 303.22 215.52 317.21 223.64" style="fill:#3e6866;opacity:0.5"/><polygon points="317.32 434.44 319.14 433.39 319.12 222.7 317.32 223.81 317.32 434.44" style="fill:#3e6866;opacity:0.5"/><g style="isolation:isolate"><path d="M292.88,355l-9.58,5.53v-3.26l9.58-5.53V355m0-6-9.58,5.53v-3.26l9.58-5.53V349m46.75-50.93a16.42,16.42,0,0,0-7.42,12.85l0,6.51-45.54,26.29c-3.57,2.06-6.47,7.81-6.45,12.79v2.3c0,5,2.94,7.36,6.51,5.3l13.15-7.59c1.6-.92.46-5,2-5.91l15.25-8.81c1.3-.75.16,4.67,2,3.59l13.13-7.58,0,6.51c0,4.71,3.38,6.62,7.47,4.26L358,338.11a16.41,16.41,0,0,0,7.43-12.86l-.09-33.42c0-4.7-3.38-6.62-7.48-4.25l-18.21,10.51" style="fill:#ffe000"/></g></svg>