<svg id="4f7ae8dd-f2d2-4056-91a6-a1afa3298210" data-name="Layer 5 copy 3" xmlns="http://www.w3.org/2000/svg" width="422.84" height="514.93" viewBox="0 0 422.84 514.93"><title>walloverlay-yb-1</title><polygon points="105.32 116.48 107.22 115.28 93.33 107.2 91.33 108.35 105.32 116.48" style="fill:#3e6866;opacity:0.5"/><polygon points="105.43 327.27 107.25 326.23 107.22 115.53 105.43 116.65 105.43 327.27" style="fill:#3e6866;opacity:0.5"/><g style="isolation:isolate"><path d="M81,247.86l-9.58,5.53v-3.26L81,244.6v3.26m0-6-9.58,5.53v-3.26L81,238.6v3.26m46.75-50.93a16.42,16.42,0,0,0-7.42,12.85l0,6.51L74.78,236.59c-3.57,2.06-6.47,7.81-6.45,12.79v2.3c0,5,2.94,7.36,6.51,5.3L88,249.4c1.6-.92.46-5,2-5.91l15.25-8.81c1.3-.75.16,4.67,2,3.59l13.13-7.58,0,6.51c0,4.71,3.38,6.62,7.47,4.26L146.08,231a16.41,16.41,0,0,0,7.43-12.86l-.09-33.42c0-4.7-3.38-6.62-7.48-4.25l-18.21,10.51" style="fill:#ffe000"/></g></svg>