<svg id="5dbb7a8e-dff8-44b6-9e07-40f5ab14a514" data-name="Layer 5" xmlns="http://www.w3.org/2000/svg" width="422.84" height="514.93" viewBox="0 0 422.84 514.93"><title>walloverlay-xf-1</title><polygon points="107.41 223.64 105.5 222.44 119.4 214.36 121.39 215.52 107.41 223.64" style="fill:#3e6866;opacity:0.5"/><polygon points="107.29 434.44 105.48 433.39 105.5 222.7 107.29 223.81 107.29 434.44" style="fill:#3e6866;opacity:0.5"/><g style="isolation:isolate"><path d="M131.73,355v-3.26l9.58,5.53v3.26L131.73,355m0-6v-3.26l9.58,5.53v3.26L131.75,349M85,298.09,66.79,287.58c-4.1-2.37-7.46-.45-7.48,4.25l-.09,33.42a16.41,16.41,0,0,0,7.43,12.86l18.21,10.51c4.09,2.36,7.46.45,7.47-4.26l0-6.51,13.13,7.58c1.86,1.08.72-4.34,2-3.59l15.25,8.81c1.53.88.4,5,2,5.91l13.15,7.59c3.57,2.06,6.49-.33,6.51-5.3v-2.3c0-5-2.89-10.73-6.45-12.79L92.4,317.46l0-6.51A16.42,16.42,0,0,0,85,298.09" style="fill:#ffe000"/></g></svg>