<svg id="9a94d600-9e9d-4852-94dc-eac338d0c150" data-name="Layer 5 copy 2" xmlns="http://www.w3.org/2000/svg" width="422.84" height="514.93" viewBox="0 0 422.84 514.93"><title>walloverlay-xb-1</title><polygon points="318.91 118.25 317 117.04 330.9 108.97 332.89 110.12 318.91 118.25" style="fill:#3e6866;opacity:0.5"/><polygon points="318.79 329.04 316.98 327.99 317 117.3 318.79 118.41 318.79 329.04" style="fill:#3e6866;opacity:0.5"/><g style="isolation:isolate"><path d="M343.23,249.62v-3.26l9.58,5.53v3.26l-9.58-5.53m0-6v-3.26l9.58,5.53v3.26l-9.58-5.53M296.5,192.7l-18.21-10.51c-4.1-2.37-7.46-.45-7.48,4.25l-.09,33.42a16.41,16.41,0,0,0,7.43,12.86l18.21,10.51c4.09,2.36,7.46.45,7.47-4.26l0-6.51L317,240c1.86,1.08.72-4.34,2-3.59l15.25,8.81c1.53.88.4,5,2,5.91l13.15,7.59c3.57,2.06,6.49-.33,6.51-5.3v-2.3c0-5-2.89-10.73-6.45-12.79L303.9,212.06l0-6.51a16.42,16.42,0,0,0-7.42-12.85" style="fill:#ffe000"/></g></svg>